# Blender v3.6.23 OBJ File: 'bike.blend'
# www.blender.org
mtllib player.mtl
o 円柱.002
v -0.078702 0.493002 0.399015
v -0.078702 0.493002 0.241612
v -0.077190 0.477648 0.399015
v -0.077190 0.477648 0.241612
v -0.072711 0.462884 0.399015
v -0.072711 0.462884 0.241612
v -0.065438 0.449277 0.399015
v -0.065438 0.449277 0.241612
v -0.055651 0.437351 0.399015
v -0.055651 0.437351 0.241612
v -0.043724 0.427563 0.399015
v -0.043724 0.427563 0.241612
v -0.030118 0.420291 0.399015
v -0.030118 0.420291 0.241612
v -0.015354 0.415812 0.399015
v -0.015354 0.415812 0.241612
v 0.000000 0.414300 0.399015
v -0.000000 0.414300 0.241612
v 0.015354 0.415812 0.399015
v 0.015354 0.415812 0.241612
v 0.030118 0.420291 0.399015
v 0.030118 0.420291 0.241612
v 0.043724 0.427563 0.399015
v 0.043724 0.427563 0.241612
v 0.055651 0.437351 0.399015
v 0.055651 0.437351 0.241612
v 0.065438 0.449277 0.399015
v 0.065438 0.449277 0.241612
v 0.072711 0.462884 0.399015
v 0.072711 0.462884 0.241612
v 0.077190 0.477648 0.399015
v 0.077190 0.477648 0.241612
v 0.078702 0.493002 0.399015
v 0.078702 0.493002 0.241612
v 0.077190 0.508356 0.399015
v 0.077190 0.508356 0.241612
v 0.072711 0.523119 0.399015
v 0.072711 0.523119 0.241612
v 0.065438 0.536726 0.399015
v 0.065438 0.536726 0.241612
v 0.055651 0.548652 0.399015
v 0.055651 0.548652 0.241612
v 0.043724 0.558440 0.399015
v 0.043724 0.558440 0.241612
v 0.030118 0.565713 0.399015
v 0.030118 0.565713 0.241612
v 0.015354 0.570191 0.399015
v 0.015354 0.570191 0.241612
v 0.000000 0.571703 0.399015
v -0.000000 0.571703 0.241612
v -0.015354 0.570191 0.399015
v -0.015354 0.570191 0.241612
v -0.030118 0.565713 0.399015
v -0.030118 0.565713 0.241612
v -0.043724 0.558440 0.399015
v -0.043724 0.558440 0.241612
v -0.055651 0.548652 0.399015
v -0.055651 0.548652 0.241612
v -0.065438 0.536726 0.399015
v -0.065438 0.536726 0.241612
v -0.072711 0.523119 0.399015
v -0.072711 0.523119 0.241612
v -0.077190 0.508356 0.399015
v -0.077190 0.508356 0.241612
v -0.052154 -0.340128 0.225298
v 0.052154 -0.340128 0.225298
v -0.052154 -0.380644 0.229289
v 0.052154 -0.380644 0.229289
v -0.052154 -0.419603 0.241107
v 0.052154 -0.419603 0.241107
v -0.052154 -0.455508 0.260298
v 0.052154 -0.455508 0.260298
v -0.052154 -0.486979 0.286126
v 0.052154 -0.486979 0.286126
v -0.052154 -0.512807 0.317597
v 0.052154 -0.512807 0.317597
v -0.052154 -0.531999 0.353502
v 0.052154 -0.531999 0.353502
v -0.052154 -0.543817 0.392461
v 0.052154 -0.543817 0.392461
v -0.052154 -0.547807 0.432977
v 0.052154 -0.547807 0.432977
v -0.052154 -0.543817 0.473493
v 0.052154 -0.543817 0.473493
v -0.052154 -0.531999 0.512453
v 0.052154 -0.531999 0.512453
v -0.052154 -0.512807 0.548358
v 0.052154 -0.512807 0.548358
v -0.052154 -0.486979 0.579829
v 0.052154 -0.486979 0.579829
v -0.052154 -0.455508 0.605656
v 0.052154 -0.455508 0.605656
v -0.052154 -0.419603 0.624848
v 0.052154 -0.419603 0.624848
v -0.052154 -0.380644 0.636666
v 0.052154 -0.380644 0.636666
v -0.052154 -0.340128 0.640656
v 0.052154 -0.340128 0.640656
v -0.052154 -0.299612 0.636666
v 0.052154 -0.299612 0.636666
v -0.052154 -0.260653 0.624848
v 0.052154 -0.260653 0.624848
v -0.052154 -0.224748 0.605656
v 0.052154 -0.224748 0.605656
v -0.052154 -0.193277 0.579829
v 0.052154 -0.193277 0.579829
v -0.052154 -0.167449 0.548358
v 0.052154 -0.167449 0.548358
v -0.052154 -0.148258 0.512453
v 0.052154 -0.148258 0.512453
v -0.052154 -0.136439 0.473493
v 0.052154 -0.136439 0.473493
v -0.052154 -0.132449 0.432977
v 0.052154 -0.132449 0.432977
v -0.052154 -0.136439 0.392461
v 0.052154 -0.136439 0.392461
v -0.052154 -0.148258 0.353502
v 0.052154 -0.148258 0.353502
v -0.052154 -0.167449 0.317597
v 0.052154 -0.167449 0.317597
v -0.052154 -0.193277 0.286126
v 0.052154 -0.193277 0.286126
v -0.052154 -0.224748 0.260298
v 0.052154 -0.224748 0.260298
v -0.052154 -0.260653 0.241107
v 0.052154 -0.260653 0.241107
v -0.052154 -0.299612 0.229289
v 0.052154 -0.299612 0.229289
v -0.210337 -0.393721 -0.691439
v -0.210337 -0.393721 0.113678
v -0.147289 -0.038752 -0.560259
v -0.147289 -0.038752 -0.153189
v 0.209980 -0.393721 -0.691439
v 0.209980 -0.393721 0.113678
v 0.145553 -0.038752 -0.561656
v 0.147622 -0.038752 -0.153189
v -0.210337 -0.393721 -0.422314
v -0.147289 -0.038752 -0.422314
v 0.147622 -0.038752 -0.422314
v 0.209980 -0.393721 -0.423012
v -0.000179 -0.038752 -0.560259
v -0.000179 -0.038752 -0.153189
v -0.000179 -0.393721 -0.691439
v -0.000179 -0.393721 0.113678
v -0.000179 -0.393721 -0.422314
v -0.000179 -0.038752 -0.422314
v -0.212406 -0.216237 -0.692836
v -0.147289 -0.216236 -0.154585
v 0.207910 -0.216237 -0.692836
v 0.146932 -0.216236 -0.154585
v 0.207910 -0.216236 -0.227074
v -0.212406 -0.216236 -0.227074
v -0.002248 -0.216236 -0.154585
v -0.002248 -0.216237 -0.692836
v -0.211371 -0.304979 -0.692137
v 0.208945 -0.304979 0.112980
v 0.208945 -0.304979 -0.226376
v -0.001213 -0.304979 0.112980
v -0.001213 -0.304979 -0.692137
v -0.211371 -0.304979 0.112980
v 0.208945 -0.304979 -0.692137
v -0.211371 -0.304979 -0.226376
v 0.208945 -0.164547 0.267002
v 0.209980 -0.253289 0.267700
v -0.000179 -0.253289 0.267700
v -0.210337 -0.253289 0.267700
v -0.001213 -0.164547 0.267002
v -0.211371 -0.164547 0.267002
v 0.208945 -0.027135 0.353073
v 0.209980 -0.115877 0.353771
v -0.000179 -0.115877 0.353771
v -0.210337 -0.115877 0.353771
v -0.001213 -0.027135 0.353073
v -0.211371 -0.027135 0.353073
v -0.211371 0.418761 0.267002
v -0.211371 0.418761 0.353073
v -0.001213 0.418761 0.267002
v 0.208945 0.418761 0.267002
v -0.001213 0.418761 0.353073
v 0.208945 0.418761 0.353073
v -0.460061 0.494787 0.272305
v 0.460061 0.494787 0.272305
v -0.460061 0.488874 0.272888
v 0.460061 0.488873 0.272888
v -0.460061 0.483187 0.274613
v 0.460061 0.483187 0.274613
v -0.460061 0.477947 0.277414
v 0.460061 0.477947 0.277414
v -0.460061 0.473354 0.281183
v 0.460061 0.473354 0.281183
v -0.460061 0.469584 0.285777
v 0.460061 0.469584 0.285777
v -0.460061 0.466783 0.291017
v 0.460061 0.466783 0.291017
v -0.460061 0.465058 0.296703
v 0.460061 0.465058 0.296703
v -0.460061 0.464476 0.302616
v 0.460061 0.464476 0.302616
v -0.460061 0.465058 0.308530
v 0.460061 0.465058 0.308530
v -0.460061 0.466783 0.314216
v 0.460061 0.466783 0.314216
v -0.460061 0.469584 0.319456
v 0.460061 0.469584 0.319456
v -0.460061 0.473354 0.324050
v 0.460061 0.473354 0.324050
v -0.460061 0.477947 0.327819
v 0.460061 0.477947 0.327819
v -0.460061 0.483187 0.330620
v 0.460061 0.483187 0.330620
v -0.460061 0.488874 0.332345
v 0.460061 0.488873 0.332345
v -0.460061 0.494787 0.332927
v 0.460061 0.494787 0.332927
v -0.460061 0.500700 0.332345
v 0.460061 0.500700 0.332345
v -0.460061 0.506386 0.330620
v 0.460061 0.506386 0.330620
v -0.460061 0.511627 0.327819
v 0.460061 0.511627 0.327819
v -0.460061 0.516220 0.324050
v 0.460061 0.516220 0.324050
v -0.460061 0.519990 0.319456
v 0.460061 0.519989 0.319456
v -0.460061 0.522791 0.314216
v 0.460061 0.522791 0.314216
v -0.460061 0.524515 0.308530
v 0.460061 0.524515 0.308530
v -0.460061 0.525098 0.302616
v 0.460061 0.525098 0.302616
v -0.460061 0.524515 0.296703
v 0.460061 0.524515 0.296703
v -0.460061 0.522791 0.291017
v 0.460061 0.522791 0.291017
v -0.460061 0.519990 0.285777
v 0.460061 0.519989 0.285777
v -0.460061 0.516220 0.281183
v 0.460061 0.516220 0.281183
v -0.460061 0.511627 0.277414
v 0.460061 0.511627 0.277414
v -0.460061 0.506386 0.274613
v 0.460061 0.506386 0.274613
v -0.460061 0.500700 0.272888
v 0.460061 0.500700 0.272888
v -0.052154 -0.340128 -0.660825
v 0.052154 -0.340128 -0.660825
v -0.052154 -0.380644 -0.656834
v 0.052154 -0.380644 -0.656834
v -0.052154 -0.419604 -0.645016
v 0.052154 -0.419604 -0.645016
v -0.052154 -0.455509 -0.625824
v 0.052154 -0.455509 -0.625824
v -0.052154 -0.486979 -0.599997
v 0.052154 -0.486979 -0.599997
v -0.052154 -0.512807 -0.568526
v 0.052154 -0.512807 -0.568526
v -0.052154 -0.531999 -0.532621
v 0.052154 -0.531999 -0.532621
v -0.052154 -0.543817 -0.493662
v 0.052154 -0.543817 -0.493662
v -0.052154 -0.547807 -0.453146
v 0.052154 -0.547807 -0.453146
v -0.052154 -0.543817 -0.412629
v 0.052154 -0.543817 -0.412629
v -0.052154 -0.531999 -0.373670
v 0.052154 -0.531999 -0.373670
v -0.052154 -0.512807 -0.337765
v 0.052154 -0.512807 -0.337765
v -0.052154 -0.486979 -0.306294
v 0.052154 -0.486979 -0.306294
v -0.052154 -0.455508 -0.280467
v 0.052154 -0.455508 -0.280467
v -0.052154 -0.419603 -0.261275
v 0.052154 -0.419603 -0.261275
v -0.052154 -0.380644 -0.249457
v 0.052154 -0.380644 -0.249457
v -0.052154 -0.340128 -0.245466
v 0.052154 -0.340128 -0.245466
v -0.052154 -0.299612 -0.249457
v 0.052154 -0.299612 -0.249457
v -0.052154 -0.260653 -0.261275
v 0.052154 -0.260653 -0.261275
v -0.052154 -0.224748 -0.280467
v 0.052154 -0.224748 -0.280467
v -0.052154 -0.193277 -0.306294
v 0.052154 -0.193277 -0.306294
v -0.052154 -0.167449 -0.337765
v 0.052154 -0.167449 -0.337765
v -0.052154 -0.148258 -0.373670
v 0.052154 -0.148258 -0.373670
v -0.052154 -0.136439 -0.412629
v 0.052154 -0.136439 -0.412629
v -0.052154 -0.132449 -0.453146
v 0.052154 -0.132449 -0.453146
v -0.052154 -0.136439 -0.493662
v 0.052154 -0.136439 -0.493662
v -0.052154 -0.148258 -0.532621
v 0.052154 -0.148258 -0.532621
v -0.052154 -0.167449 -0.568526
v 0.052154 -0.167449 -0.568526
v -0.052154 -0.193277 -0.599997
v 0.052154 -0.193277 -0.599997
v -0.052154 -0.224748 -0.625824
v 0.052154 -0.224748 -0.625825
v -0.052154 -0.260653 -0.645016
v 0.052154 -0.260653 -0.645016
v -0.052154 -0.299612 -0.656834
v 0.052154 -0.299612 -0.656834
vt 0.853123 0.000291
vt 0.693897 0.015897
vt 0.693897 0.000291
vt 0.853123 0.015897
vt 0.693897 0.031504
vt 0.853123 0.031504
vt 0.693897 0.047111
vt 0.853123 0.047111
vt 0.693897 0.062718
vt 0.853123 0.062718
vt 0.693897 0.078325
vt 0.853123 0.078325
vt 0.693897 0.093932
vt 0.853123 0.093932
vt 0.693897 0.109538
vt 0.853123 0.109538
vt 0.693897 0.125145
vt 0.853123 0.125145
vt 0.693897 0.140752
vt 0.853123 0.140752
vt 0.693897 0.156359
vt 0.853123 0.156359
vt 0.693897 0.171966
vt 0.853123 0.171966
vt 0.693897 0.187573
vt 0.853123 0.187573
vt 0.693897 0.203179
vt 0.853123 0.203179
vt 0.693897 0.218786
vt 0.853123 0.218786
vt 0.693897 0.234393
vt 0.853123 0.234393
vt 0.693897 0.250000
vt 0.853123 0.250000
vt 0.693897 0.265607
vt 0.853123 0.265607
vt 0.693897 0.281214
vt 0.853123 0.281214
vt 0.693897 0.296821
vt 0.853123 0.296820
vt 0.693897 0.312427
vt 0.853123 0.312427
vt 0.693897 0.328034
vt 0.853123 0.328034
vt 0.693897 0.343641
vt 0.853123 0.343641
vt 0.693897 0.359248
vt 0.853123 0.359248
vt 0.693897 0.374855
vt 0.853123 0.374855
vt 0.693897 0.390462
vt 0.853123 0.390462
vt 0.693897 0.406068
vt 0.853123 0.406068
vt 0.693897 0.421675
vt 0.853123 0.421675
vt 0.693897 0.437282
vt 0.853123 0.437282
vt 0.693897 0.452889
vt 0.853123 0.452889
vt 0.693897 0.468496
vt 0.621123 0.818371
vt 0.692549 0.905404
vt 0.605516 0.976830
vt 0.853123 0.468496
vt 0.693897 0.484103
vt 0.853123 0.484103
vt 0.693897 0.499709
vt 0.848544 0.556410
vt 0.795470 0.655705
vt 0.696175 0.602630
vt 0.693316 0.000291
vt 0.534090 0.015897
vt 0.534090 0.000291
vt 0.693316 0.015897
vt 0.534090 0.031504
vt 0.693316 0.031504
vt 0.534090 0.047111
vt 0.693316 0.047111
vt 0.534090 0.062718
vt 0.693316 0.062718
vt 0.534090 0.078325
vt 0.693316 0.078325
vt 0.534090 0.093932
vt 0.693316 0.093932
vt 0.534090 0.109538
vt 0.693316 0.109538
vt 0.534090 0.125145
vt 0.693316 0.125145
vt 0.534090 0.140752
vt 0.693316 0.140752
vt 0.534090 0.156359
vt 0.693316 0.156359
vt 0.534090 0.171966
vt 0.693316 0.171966
vt 0.534090 0.187573
vt 0.693316 0.187573
vt 0.534090 0.203179
vt 0.693316 0.203179
vt 0.534090 0.218786
vt 0.693316 0.218786
vt 0.534090 0.234393
vt 0.693316 0.234393
vt 0.534090 0.250000
vt 0.693316 0.250000
vt 0.534090 0.265607
vt 0.693316 0.265607
vt 0.534090 0.281214
vt 0.693316 0.281214
vt 0.534090 0.296821
vt 0.693316 0.296820
vt 0.534090 0.312427
vt 0.693316 0.312427
vt 0.534090 0.328034
vt 0.693316 0.328034
vt 0.534090 0.343641
vt 0.693316 0.343641
vt 0.534090 0.359248
vt 0.693316 0.359248
vt 0.534090 0.374855
vt 0.693316 0.374855
vt 0.534090 0.390462
vt 0.693316 0.390462
vt 0.534090 0.406068
vt 0.693316 0.406068
vt 0.534090 0.421675
vt 0.693316 0.421675
vt 0.534090 0.437282
vt 0.693316 0.437282
vt 0.534090 0.452889
vt 0.693316 0.452889
vt 0.534090 0.468496
vt 0.159331 0.770644
vt 0.246364 0.699218
vt 0.317789 0.786251
vt 0.693316 0.468496
vt 0.534090 0.484103
vt 0.693316 0.484103
vt 0.534090 0.499709
vt 0.689504 0.715450
vt 0.636430 0.814745
vt 0.537135 0.761670
vt 0.266801 0.272461
vt 0.262629 0.241609
vt 0.294203 0.223005
vt 0.277131 0.201863
vt 0.241617 0.220313
vt 0.252024 0.188072
vt 0.161552 0.260987
vt 0.110183 0.344316
vt 0.122569 0.197605
vt 0.059566 0.197572
vt 0.000291 0.347482
vt 0.000291 0.197090
vt 0.156529 0.124560
vt 0.131830 0.060565
vt 0.169380 0.069786
vt 0.057142 0.345149
vt 0.120248 0.409326
vt 0.062955 0.414867
vt 0.000670 0.120770
vt 0.060179 0.121060
vt 0.120735 0.121133
vt 0.260897 0.155173
vt 0.297840 0.177271
vt 0.368127 0.262412
vt 0.319809 0.209585
vt 0.184249 0.309015
vt 0.146645 0.294280
vt 0.143822 0.263071
vt 0.149711 0.000291
vt 0.188234 0.011861
vt 0.298671 0.079202
vt 0.205408 0.080699
vt 0.226139 0.025065
vt 0.254220 0.230054
vt 0.223515 0.242147
vt 0.370880 0.291159
vt 0.188194 0.127710
vt 0.238853 0.252981
vt 0.280168 0.117797
vt 0.193058 0.241291
vt 0.187072 0.340223
vt 0.262914 0.301489
vt 0.311318 0.328336
vt 0.373702 0.322368
vt 0.246595 0.375504
vt 0.195579 0.369286
vt 0.122069 0.247891
vt 0.119246 0.216683
vt 0.140265 0.495551
vt 0.176973 0.610062
vt 0.102163 0.521305
vt 0.138625 0.363164
vt 0.194555 0.434916
vt 0.138797 0.440049
vt 0.005605 0.420009
vt 0.038050 0.527739
vt 0.083064 0.494159
vt 0.127291 0.468451
vt 0.069666 0.475852
vt 0.244180 0.435925
vt 0.202066 0.603486
vt 0.011881 0.481945
vt 0.237164 0.688349
vt 0.175558 0.570947
vt 0.182909 0.567514
vt 0.187672 0.698637
vt 0.059540 0.556301
vt 0.124192 0.058044
vt 0.533509 0.000291
vt 0.374283 0.015897
vt 0.374283 0.000291
vt 0.533509 0.015897
vt 0.374283 0.031504
vt 0.533509 0.031504
vt 0.374283 0.047111
vt 0.533509 0.047111
vt 0.374283 0.062718
vt 0.533509 0.062718
vt 0.374283 0.078325
vt 0.533509 0.078325
vt 0.374283 0.093932
vt 0.533509 0.093932
vt 0.374283 0.109538
vt 0.533509 0.109538
vt 0.374283 0.125145
vt 0.533509 0.125145
vt 0.374283 0.140752
vt 0.533509 0.140752
vt 0.374283 0.156359
vt 0.533509 0.156359
vt 0.374283 0.171966
vt 0.533509 0.171966
vt 0.374283 0.187573
vt 0.533509 0.187573
vt 0.374283 0.203180
vt 0.533509 0.203179
vt 0.374283 0.218786
vt 0.533509 0.218786
vt 0.374283 0.234393
vt 0.533509 0.234393
vt 0.374283 0.250000
vt 0.533509 0.250000
vt 0.374283 0.265607
vt 0.533509 0.265607
vt 0.374283 0.281214
vt 0.533509 0.281214
vt 0.374283 0.296821
vt 0.533509 0.296821
vt 0.374283 0.312427
vt 0.533509 0.312427
vt 0.374283 0.328034
vt 0.533509 0.328034
vt 0.374283 0.343641
vt 0.533509 0.343641
vt 0.374283 0.359248
vt 0.533509 0.359248
vt 0.374283 0.374855
vt 0.533509 0.374855
vt 0.374283 0.390462
vt 0.533509 0.390462
vt 0.374283 0.406068
vt 0.533509 0.406068
vt 0.374283 0.421675
vt 0.533509 0.421675
vt 0.374283 0.437282
vt 0.533509 0.437282
vt 0.374283 0.452889
vt 0.533509 0.452889
vt 0.374283 0.468496
vt 0.087323 0.699218
vt 0.158749 0.786251
vt 0.071717 0.857677
vt 0.533509 0.468496
vt 0.374283 0.484103
vt 0.533509 0.484103
vt 0.374283 0.499709
vt 0.689504 0.556410
vt 0.636430 0.655705
vt 0.537135 0.602630
vt 0.533509 0.500291
vt 0.374283 0.515898
vt 0.374283 0.500291
vt 0.533509 0.515897
vt 0.374283 0.531504
vt 0.533509 0.531504
vt 0.374283 0.547111
vt 0.533509 0.547111
vt 0.374283 0.562718
vt 0.533509 0.562718
vt 0.374283 0.578325
vt 0.533509 0.578325
vt 0.374283 0.593932
vt 0.533509 0.593932
vt 0.374283 0.609538
vt 0.533509 0.609538
vt 0.374283 0.625145
vt 0.533509 0.625145
vt 0.374283 0.640752
vt 0.533509 0.640752
vt 0.374283 0.656359
vt 0.533509 0.656359
vt 0.374283 0.671966
vt 0.533509 0.671966
vt 0.374283 0.687573
vt 0.533509 0.687573
vt 0.374283 0.703180
vt 0.533509 0.703179
vt 0.374283 0.718786
vt 0.533509 0.718786
vt 0.374283 0.734393
vt 0.533509 0.734393
vt 0.374283 0.750000
vt 0.533509 0.750000
vt 0.374283 0.765607
vt 0.533509 0.765607
vt 0.374283 0.781214
vt 0.533509 0.781214
vt 0.374283 0.796821
vt 0.533509 0.796821
vt 0.374283 0.812427
vt 0.533509 0.812427
vt 0.374283 0.828034
vt 0.533509 0.828034
vt 0.374283 0.843641
vt 0.533509 0.843641
vt 0.374283 0.859248
vt 0.533509 0.859248
vt 0.374283 0.874855
vt 0.533509 0.874855
vt 0.374283 0.890462
vt 0.533509 0.890462
vt 0.374283 0.906068
vt 0.533509 0.906068
vt 0.374283 0.921675
vt 0.533509 0.921675
vt 0.374283 0.937282
vt 0.533509 0.937282
vt 0.374283 0.952889
vt 0.533509 0.952889
vt 0.374283 0.968496
vt 0.780163 0.818371
vt 0.851589 0.905404
vt 0.764556 0.976830
vt 0.533509 0.968496
vt 0.374283 0.984103
vt 0.533509 0.984103
vt 0.374283 0.999709
vt 0.848544 0.715450
vt 0.795470 0.814745
vt 0.696175 0.761670
vt 0.590209 0.973785
vt 0.575790 0.967812
vt 0.562814 0.959142
vt 0.551778 0.948106
vt 0.543107 0.935129
vt 0.537135 0.920711
vt 0.534090 0.905404
vt 0.534090 0.889797
vt 0.537135 0.874490
vt 0.543107 0.860071
vt 0.551778 0.847094
vt 0.562814 0.836059
vt 0.575790 0.827388
vt 0.590209 0.821416
vt 0.605516 0.818371
vt 0.636430 0.821416
vt 0.674861 0.847094
vt 0.650849 0.827388
vt 0.663825 0.836059
vt 0.683532 0.860071
vt 0.689504 0.874490
vt 0.692549 0.889797
vt 0.689504 0.920711
vt 0.663825 0.959142
vt 0.683532 0.935129
vt 0.674861 0.948106
vt 0.650849 0.967812
vt 0.636430 0.973785
vt 0.621123 0.976830
vt 0.853123 0.499709
vt 0.693130 0.587323
vt 0.693130 0.571717
vt 0.696175 0.556410
vt 0.702147 0.541991
vt 0.710818 0.529014
vt 0.721854 0.517979
vt 0.734830 0.509308
vt 0.749249 0.503335
vt 0.764556 0.500291
vt 0.780163 0.500291
vt 0.795470 0.503335
vt 0.809889 0.509308
vt 0.822865 0.517979
vt 0.833901 0.529014
vt 0.842572 0.541991
vt 0.851589 0.571717
vt 0.851589 0.587324
vt 0.848544 0.602630
vt 0.842572 0.617049
vt 0.833901 0.630026
vt 0.822865 0.641062
vt 0.809889 0.649732
vt 0.780163 0.658749
vt 0.764556 0.658749
vt 0.749249 0.655705
vt 0.734830 0.649732
vt 0.721854 0.641062
vt 0.710818 0.630026
vt 0.702147 0.617049
vt 0.230757 0.857677
vt 0.215450 0.854632
vt 0.201031 0.848660
vt 0.188054 0.839989
vt 0.177019 0.828954
vt 0.168348 0.815977
vt 0.162375 0.801558
vt 0.159331 0.786251
vt 0.162375 0.755337
vt 0.168348 0.740919
vt 0.177019 0.727942
vt 0.188054 0.716906
vt 0.201031 0.708236
vt 0.215450 0.702263
vt 0.230757 0.699218
vt 0.261670 0.702263
vt 0.276089 0.708236
vt 0.289066 0.716906
vt 0.300102 0.727942
vt 0.308772 0.740919
vt 0.314745 0.755338
vt 0.317789 0.770644
vt 0.314745 0.801558
vt 0.308772 0.815977
vt 0.300102 0.828954
vt 0.289066 0.839989
vt 0.276089 0.848660
vt 0.261670 0.854632
vt 0.246363 0.857677
vt 0.693316 0.499709
vt 0.534090 0.746363
vt 0.534090 0.730757
vt 0.537135 0.715450
vt 0.543107 0.701031
vt 0.551778 0.688054
vt 0.590209 0.662375
vt 0.562814 0.677019
vt 0.575790 0.668348
vt 0.605516 0.659331
vt 0.621123 0.659331
vt 0.636430 0.662375
vt 0.650849 0.668348
vt 0.663825 0.677019
vt 0.674861 0.688054
vt 0.683532 0.701031
vt 0.692549 0.730757
vt 0.683532 0.776089
vt 0.692549 0.746364
vt 0.689504 0.761671
vt 0.674861 0.789066
vt 0.663825 0.800102
vt 0.650849 0.808772
vt 0.621123 0.817789
vt 0.605516 0.817789
vt 0.590209 0.814745
vt 0.575790 0.808772
vt 0.562814 0.800102
vt 0.551778 0.789066
vt 0.543107 0.776089
vt 0.256845 0.256615
vt 0.254237 0.230038
vt 0.104240 0.059954
vt 0.056410 0.854632
vt 0.041991 0.848660
vt 0.029014 0.839989
vt 0.017979 0.828954
vt 0.009308 0.815977
vt 0.003335 0.801558
vt 0.000291 0.786251
vt 0.000291 0.770644
vt 0.003335 0.755337
vt 0.009308 0.740919
vt 0.017979 0.727942
vt 0.029014 0.716906
vt 0.041991 0.708236
vt 0.056410 0.702263
vt 0.071717 0.699218
vt 0.102630 0.702263
vt 0.117049 0.708236
vt 0.130026 0.716906
vt 0.141062 0.727942
vt 0.149732 0.740919
vt 0.155705 0.755338
vt 0.158749 0.770644
vt 0.155705 0.801558
vt 0.149732 0.815977
vt 0.141061 0.828954
vt 0.130026 0.839989
vt 0.117049 0.848660
vt 0.102630 0.854632
vt 0.087323 0.857677
vt 0.533509 0.499709
vt 0.534090 0.587323
vt 0.543107 0.541991
vt 0.534090 0.571717
vt 0.537135 0.556410
vt 0.551778 0.529014
vt 0.562814 0.517979
vt 0.575790 0.509308
vt 0.590209 0.503335
vt 0.605516 0.500291
vt 0.621123 0.500291
vt 0.636430 0.503335
vt 0.650849 0.509308
vt 0.663825 0.517979
vt 0.674861 0.529014
vt 0.683532 0.541991
vt 0.692549 0.571717
vt 0.692549 0.587324
vt 0.689504 0.602630
vt 0.683532 0.617049
vt 0.674861 0.630026
vt 0.663825 0.641062
vt 0.650849 0.649732
vt 0.621123 0.658749
vt 0.575790 0.649732
vt 0.605516 0.658749
vt 0.590209 0.655705
vt 0.562814 0.641062
vt 0.551778 0.630026
vt 0.543107 0.617049
vt 0.749249 0.973785
vt 0.734830 0.967812
vt 0.721854 0.959142
vt 0.710818 0.948106
vt 0.702147 0.935129
vt 0.696175 0.920711
vt 0.693130 0.905404
vt 0.693130 0.889797
vt 0.696175 0.874490
vt 0.702147 0.860071
vt 0.710818 0.847094
vt 0.721854 0.836059
vt 0.734830 0.827388
vt 0.749249 0.821416
vt 0.764556 0.818371
vt 0.795470 0.821416
vt 0.809889 0.827388
vt 0.822865 0.836059
vt 0.833901 0.847094
vt 0.842572 0.860071
vt 0.848544 0.874490
vt 0.851589 0.889797
vt 0.848544 0.920711
vt 0.842572 0.935129
vt 0.833901 0.948106
vt 0.822865 0.959142
vt 0.809889 0.967812
vt 0.795470 0.973785
vt 0.780163 0.976830
vt 0.533509 0.999709
vt 0.693130 0.746363
vt 0.693130 0.730757
vt 0.696175 0.715450
vt 0.702148 0.701031
vt 0.710818 0.688054
vt 0.749249 0.662375
vt 0.721854 0.677019
vt 0.734831 0.668348
vt 0.764556 0.659331
vt 0.780163 0.659331
vt 0.795470 0.662375
vt 0.809889 0.668348
vt 0.822866 0.677019
vt 0.833901 0.688054
vt 0.842572 0.701031
vt 0.851589 0.730757
vt 0.851589 0.746364
vt 0.848544 0.761670
vt 0.842572 0.776089
vt 0.833901 0.789066
vt 0.822865 0.800102
vt 0.809889 0.808772
vt 0.780163 0.817789
vt 0.764556 0.817789
vt 0.749249 0.814745
vt 0.734830 0.808772
vt 0.721854 0.800102
vt 0.710818 0.789066
vt 0.702147 0.776089
vn -0.9952 -0.0980 0.0000
vn -0.9569 -0.2903 0.0000
vn -0.8819 -0.4714 0.0000
vn -0.7730 -0.6344 0.0000
vn -0.6344 -0.7730 0.0000
vn -0.4714 -0.8819 0.0000
vn -0.2903 -0.9569 0.0000
vn -0.0980 -0.9952 0.0000
vn 0.0980 -0.9952 0.0000
vn 0.2903 -0.9569 0.0000
vn 0.4714 -0.8819 0.0000
vn 0.6344 -0.7730 0.0000
vn 0.7730 -0.6344 0.0000
vn 0.8819 -0.4714 0.0000
vn 0.9569 -0.2903 0.0000
vn 0.9952 -0.0980 0.0000
vn 0.9952 0.0980 0.0000
vn 0.9569 0.2903 0.0000
vn 0.8819 0.4714 0.0000
vn 0.7730 0.6344 0.0000
vn 0.6344 0.7730 0.0000
vn 0.4714 0.8819 0.0000
vn 0.2903 0.9569 0.0000
vn 0.0980 0.9952 0.0000
vn -0.0980 0.9952 0.0000
vn -0.2903 0.9569 0.0000
vn -0.4714 0.8819 0.0000
vn -0.6344 0.7730 0.0000
vn -0.7730 0.6344 0.0000
vn -0.8819 0.4714 0.0000
vn 0.0000 0.0000 -1.0000
vn -0.9569 0.2903 0.0000
vn -0.9952 0.0980 0.0000
vn 0.0000 0.0000 1.0000
vn 0.0000 -0.0980 -0.9952
vn 0.0000 -0.2903 -0.9569
vn 0.0000 -0.4714 -0.8819
vn 0.0000 -0.6344 -0.7730
vn 0.0000 -0.7730 -0.6344
vn 0.0000 -0.8819 -0.4714
vn 0.0000 -0.9569 -0.2903
vn 0.0000 -0.9952 -0.0980
vn 0.0000 -0.9952 0.0980
vn 0.0000 -0.9569 0.2903
vn 0.0000 -0.8819 0.4714
vn 0.0000 -0.7730 0.6344
vn 0.0000 -0.6344 0.7730
vn 0.0000 -0.4714 0.8819
vn 0.0000 -0.2903 0.9569
vn 0.0000 -0.0980 0.9952
vn 0.0000 0.0980 0.9952
vn 0.0000 0.2903 0.9569
vn 0.0000 0.4714 0.8819
vn 0.0000 0.6344 0.7730
vn 0.0000 0.7730 0.6344
vn 0.0000 0.8819 0.4714
vn 0.0000 0.9569 0.2903
vn 0.0000 0.9952 0.0980
vn -0.0000 0.9952 -0.0980
vn -0.0000 0.9569 -0.2903
vn 0.0000 0.8819 -0.4714
vn 0.0000 0.7730 -0.6344
vn 0.0000 0.6344 -0.7730
vn 0.0000 0.4714 -0.8819
vn 1.0000 -0.0000 -0.0000
vn 0.0000 0.2903 -0.9569
vn 0.0000 0.0980 -0.9952
vn -1.0000 0.0000 0.0000
vn -0.9388 0.3444 -0.0000
vn 0.0000 1.0000 -0.0000
vn 0.9999 0.0117 0.0000
vn 0.0000 -1.0000 0.0000
vn 0.0000 -0.0079 -1.0000
vn 0.0000 -0.7390 0.6738
vn -0.9999 -0.0116 0.0106
vn 0.0000 0.5984 -0.8012
vn 0.0000 -0.0079 1.0000
vn -0.9999 -0.0117 0.0000
vn 0.9401 0.3406 -0.0140
vn -0.0077 0.5985 -0.8011
vn 0.9469 0.3216 -0.0000
vn 0.0000 0.0079 1.0000
vn -0.9998 -0.0115 0.0184
vn 0.9999 0.0116 -0.0106
vn 0.0000 0.7390 -0.6738
vn 0.0000 -0.5308 0.8475
vn 0.9998 0.0115 -0.0184
vn -0.7439 -0.0053 0.6683
vn 0.0000 0.5944 -0.8042
vn 0.7652 -0.0080 0.6437
vn 1.0000 0.0001 0.0000
vn -1.0000 0.0001 0.0000
vn -1.0000 -0.0001 0.0000
usemtl マテリアル
s off
f 2/1/1 3/2/1 1/3/1
f 4/4/2 5/5/2 3/2/2
f 6/6/3 7/7/3 5/5/3
f 8/8/4 9/9/4 7/7/4
f 10/10/5 11/11/5 9/9/5
f 12/12/6 13/13/6 11/11/6
f 14/14/7 15/15/7 13/13/7
f 16/16/8 17/17/8 15/15/8
f 18/18/9 19/19/9 17/17/9
f 20/20/10 21/21/10 19/19/10
f 22/22/11 23/23/11 21/21/11
f 24/24/12 25/25/12 23/23/12
f 26/26/13 27/27/13 25/25/13
f 28/28/14 29/29/14 27/27/14
f 30/30/15 31/31/15 29/29/15
f 32/32/16 33/33/16 31/31/16
f 34/34/17 35/35/17 33/33/17
f 36/36/18 37/37/18 35/35/18
f 38/38/19 39/39/19 37/37/19
f 40/40/20 41/41/20 39/39/20
f 42/42/21 43/43/21 41/41/21
f 44/44/22 45/45/22 43/43/22
f 46/46/23 47/47/23 45/45/23
f 48/48/24 49/49/24 47/47/24
f 50/50/25 51/51/25 49/49/25
f 52/52/26 53/53/26 51/51/26
f 54/54/27 55/55/27 53/53/27
f 56/56/28 57/57/28 55/55/28
f 58/58/29 59/59/29 57/57/29
f 60/60/30 61/61/30 59/59/30
f 38/62/31 22/63/31 6/64/31
f 62/65/32 63/66/32 61/61/32
f 64/67/33 1/68/33 63/66/33
f 31/69/34 47/70/34 63/71/34
f 66/72/35 67/73/35 65/74/35
f 68/75/36 69/76/36 67/73/36
f 70/77/37 71/78/37 69/76/37
f 72/79/38 73/80/38 71/78/38
f 74/81/39 75/82/39 73/80/39
f 76/83/40 77/84/40 75/82/40
f 78/85/41 79/86/41 77/84/41
f 80/87/42 81/88/42 79/86/42
f 82/89/43 83/90/43 81/88/43
f 84/91/44 85/92/44 83/90/44
f 86/93/45 87/94/45 85/92/45
f 88/95/46 89/96/46 87/94/46
f 90/97/47 91/98/47 89/96/47
f 92/99/48 93/100/48 91/98/48
f 94/101/49 95/102/49 93/100/49
f 96/103/50 97/104/50 95/102/50
f 98/105/51 99/106/51 97/104/51
f 100/107/52 101/108/52 99/106/52
f 102/109/53 103/110/53 101/108/53
f 104/111/54 105/112/54 103/110/54
f 106/113/55 107/114/55 105/112/55
f 108/115/56 109/116/56 107/114/56
f 110/117/57 111/118/57 109/116/57
f 112/119/58 113/120/58 111/118/58
f 114/121/59 115/122/59 113/120/59
f 116/123/60 117/124/60 115/122/60
f 118/125/61 119/126/61 117/124/61
f 120/127/62 121/128/62 119/126/62
f 122/129/63 123/130/63 121/128/63
f 124/131/64 125/132/64 123/130/64
f 118/133/65 102/134/65 86/135/65
f 126/136/66 127/137/66 125/132/66
f 128/138/67 65/139/67 127/137/67
f 95/140/68 111/141/68 127/142/68
f 152/143/69 132/144/69 138/145/69
f 146/146/70 136/147/70 139/148/70
f 157/149/71 134/150/71 140/151/71
f 145/152/72 130/153/72 137/154/72
f 161/155/73 143/156/73 159/157/73
f 144/158/74 164/159/74 165/160/74
f 145/152/72 129/161/72 143/162/72
f 161/155/71 140/151/71 133/163/71
f 146/146/70 135/164/70 141/165/70
f 147/166/69 138/145/69 131/167/69
f 131/167/70 146/146/70 141/165/70
f 140/151/72 143/162/72 133/163/72
f 160/168/75 166/169/75 168/170/75
f 159/157/73 129/171/73 155/172/73
f 134/150/72 145/152/72 140/151/72
f 132/144/70 146/146/70 138/145/70
f 131/173/76 154/174/76 147/175/76
f 142/176/77 150/177/77 136/147/77
f 155/178/78 152/143/78 147/166/78
f 139/148/79 149/179/79 135/164/79
f 132/144/77 153/180/77 142/176/77
f 135/164/80 154/174/80 141/181/80
f 136/147/81 151/182/81 139/148/81
f 130/183/78 162/184/78 137/185/78
f 137/185/78 155/178/78 129/186/78
f 154/174/73 155/172/73 147/175/73
f 151/182/71 161/155/71 149/179/71
f 149/179/73 159/157/73 154/174/73
f 162/184/70 160/187/70 158/188/70
f 162/184/82 151/182/82 152/143/82
f 153/180/72 152/143/72 151/182/72
f 168/170/83 172/189/83 174/190/83
f 169/191/34 179/192/34 173/193/34
f 156/194/84 164/159/84 134/150/84
f 160/187/85 167/195/85 158/188/85
f 158/188/85 163/196/85 156/194/85
f 144/158/74 166/197/74 130/153/74
f 173/193/82 172/198/82 171/199/82
f 169/191/82 171/199/82 170/200/82
f 164/159/86 171/201/86 165/160/86
f 163/196/87 170/200/87 164/159/87
f 168/202/31 177/203/31 167/195/31
f 165/160/86 172/204/86 166/197/86
f 175/205/70 179/192/70 177/203/70
f 177/203/70 180/206/70 178/207/70
f 173/193/34 176/208/34 174/209/34
f 167/195/31 178/207/31 163/196/31
f 174/190/68 175/210/68 168/170/68
f 169/191/65 178/207/65 180/206/65
f 182/211/35 183/212/35 181/213/35
f 184/214/36 185/215/36 183/212/36
f 186/216/37 187/217/37 185/215/37
f 188/218/38 189/219/38 187/217/38
f 190/220/39 191/221/39 189/219/39
f 192/222/40 193/223/40 191/221/40
f 194/224/41 195/225/41 193/223/41
f 196/226/42 197/227/42 195/225/42
f 198/228/43 199/229/43 197/227/43
f 200/230/44 201/231/44 199/229/44
f 202/232/45 203/233/45 201/231/45
f 204/234/46 205/235/46 203/233/46
f 206/236/47 207/237/47 205/235/47
f 208/238/48 209/239/48 207/237/48
f 210/240/49 211/241/49 209/239/49
f 212/242/50 213/243/50 211/241/50
f 214/244/51 215/245/51 213/243/51
f 216/246/52 217/247/52 215/245/52
f 218/248/53 219/249/53 217/247/53
f 220/250/54 221/251/54 219/249/54
f 222/252/55 223/253/55 221/251/55
f 224/254/56 225/255/56 223/253/56
f 226/256/57 227/257/57 225/255/57
f 228/258/58 229/259/58 227/257/58
f 230/260/59 231/261/59 229/259/59
f 232/262/60 233/263/60 231/261/60
f 234/264/61 235/265/61 233/263/61
f 236/266/62 237/267/62 235/265/62
f 238/268/63 239/269/63 237/267/63
f 240/270/64 241/271/64 239/269/64
f 218/272/65 202/273/65 186/274/65
f 242/275/66 243/276/66 241/271/66
f 244/277/67 181/278/67 243/276/67
f 211/279/68 227/280/68 243/281/68
f 246/282/35 247/283/35 245/284/35
f 248/285/36 249/286/36 247/283/36
f 250/287/37 251/288/37 249/286/37
f 252/289/38 253/290/38 251/288/38
f 254/291/39 255/292/39 253/290/39
f 256/293/40 257/294/40 255/292/40
f 258/295/41 259/296/41 257/294/41
f 260/297/42 261/298/42 259/296/42
f 262/299/43 263/300/43 261/298/43
f 264/301/44 265/302/44 263/300/44
f 266/303/45 267/304/45 265/302/45
f 268/305/46 269/306/46 267/304/46
f 270/307/47 271/308/47 269/306/47
f 272/309/48 273/310/48 271/308/48
f 274/311/49 275/312/49 273/310/49
f 276/313/50 277/314/50 275/312/50
f 278/315/51 279/316/51 277/314/51
f 280/317/52 281/318/52 279/316/52
f 282/319/53 283/320/53 281/318/53
f 284/321/54 285/322/54 283/320/54
f 286/323/55 287/324/55 285/322/55
f 288/325/56 289/326/56 287/324/56
f 290/327/57 291/328/57 289/326/57
f 292/329/58 293/330/58 291/328/58
f 294/331/59 295/332/59 293/330/59
f 296/333/60 297/334/60 295/332/60
f 298/335/61 299/336/61 297/334/61
f 300/337/62 301/338/62 299/336/62
f 302/339/63 303/340/63 301/338/63
f 304/341/64 305/342/64 303/340/64
f 282/343/65 266/344/65 250/345/65
f 306/346/66 307/347/66 305/342/66
f 308/348/67 245/349/67 307/347/67
f 275/350/68 291/351/68 307/352/68
f 2/1/1 4/4/1 3/2/1
f 4/4/2 6/6/2 5/5/2
f 6/6/3 8/8/3 7/7/3
f 8/8/4 10/10/4 9/9/4
f 10/10/5 12/12/5 11/11/5
f 12/12/6 14/14/6 13/13/6
f 14/14/7 16/16/7 15/15/7
f 16/16/8 18/18/8 17/17/8
f 18/18/9 20/20/9 19/19/9
f 20/20/10 22/22/10 21/21/10
f 22/22/11 24/24/11 23/23/11
f 24/24/12 26/26/12 25/25/12
f 26/26/13 28/28/13 27/27/13
f 28/28/14 30/30/14 29/29/14
f 30/30/15 32/32/15 31/31/15
f 32/32/16 34/34/16 33/33/16
f 34/34/17 36/36/17 35/35/17
f 36/36/18 38/38/18 37/37/18
f 38/38/19 40/40/19 39/39/19
f 40/40/20 42/42/20 41/41/20
f 42/42/21 44/44/21 43/43/21
f 44/44/22 46/46/22 45/45/22
f 46/46/23 48/48/23 47/47/23
f 48/48/24 50/50/24 49/49/24
f 50/50/25 52/52/25 51/51/25
f 52/52/26 54/54/26 53/53/26
f 54/54/27 56/56/27 55/55/27
f 56/56/28 58/58/28 57/57/28
f 58/58/29 60/60/29 59/59/29
f 60/60/30 62/65/30 61/61/30
f 6/64/31 4/353/31 2/354/31
f 2/354/31 64/355/31 6/64/31
f 64/355/31 62/356/31 6/64/31
f 62/356/31 60/357/31 58/358/31
f 58/358/31 56/359/31 54/360/31
f 54/360/31 52/361/31 50/362/31
f 50/362/31 48/363/31 54/360/31
f 48/363/31 46/364/31 54/360/31
f 46/364/31 44/365/31 42/366/31
f 42/366/31 40/367/31 38/62/31
f 38/62/31 36/368/31 30/369/31
f 36/368/31 34/370/31 30/369/31
f 34/370/31 32/371/31 30/369/31
f 30/369/31 28/372/31 26/373/31
f 26/373/31 24/374/31 22/63/31
f 22/63/31 20/375/31 14/376/31
f 20/375/31 18/377/31 14/376/31
f 18/377/31 16/378/31 14/376/31
f 14/376/31 12/379/31 10/380/31
f 10/380/31 8/381/31 6/64/31
f 62/356/31 58/358/31 6/64/31
f 58/358/31 54/360/31 6/64/31
f 46/364/31 42/366/31 54/360/31
f 42/366/31 38/62/31 54/360/31
f 30/369/31 26/373/31 38/62/31
f 26/373/31 22/63/31 38/62/31
f 14/376/31 10/380/31 22/63/31
f 10/380/31 6/64/31 22/63/31
f 6/64/31 54/360/31 38/62/31
f 62/65/32 64/67/32 63/66/32
f 64/67/33 2/382/33 1/68/33
f 63/71/34 1/383/34 3/384/34
f 3/384/34 5/385/34 7/386/34
f 7/386/34 9/387/34 11/388/34
f 11/388/34 13/389/34 15/390/34
f 15/390/34 17/391/34 19/392/34
f 19/392/34 21/393/34 23/394/34
f 23/394/34 25/395/34 27/396/34
f 27/396/34 29/397/34 31/69/34
f 31/69/34 33/398/34 35/399/34
f 35/399/34 37/400/34 39/401/34
f 39/401/34 41/402/34 43/403/34
f 43/403/34 45/404/34 47/70/34
f 47/70/34 49/405/34 51/406/34
f 51/406/34 53/407/34 55/408/34
f 55/408/34 57/409/34 59/410/34
f 59/410/34 61/411/34 63/71/34
f 63/71/34 3/384/34 15/390/34
f 3/384/34 7/386/34 15/390/34
f 7/386/34 11/388/34 15/390/34
f 15/390/34 19/392/34 31/69/34
f 19/392/34 23/394/34 31/69/34
f 23/394/34 27/396/34 31/69/34
f 31/69/34 35/399/34 47/70/34
f 35/399/34 39/401/34 47/70/34
f 39/401/34 43/403/34 47/70/34
f 47/70/34 51/406/34 63/71/34
f 51/406/34 55/408/34 63/71/34
f 55/408/34 59/410/34 63/71/34
f 63/71/34 15/390/34 31/69/34
f 66/72/35 68/75/35 67/73/35
f 68/75/36 70/77/36 69/76/36
f 70/77/37 72/79/37 71/78/37
f 72/79/38 74/81/38 73/80/38
f 74/81/39 76/83/39 75/82/39
f 76/83/40 78/85/40 77/84/40
f 78/85/41 80/87/41 79/86/41
f 80/87/42 82/89/42 81/88/42
f 82/89/43 84/91/43 83/90/43
f 84/91/44 86/93/44 85/92/44
f 86/93/45 88/95/45 87/94/45
f 88/95/46 90/97/46 89/96/46
f 90/97/47 92/99/47 91/98/47
f 92/99/48 94/101/48 93/100/48
f 94/101/49 96/103/49 95/102/49
f 96/103/50 98/105/50 97/104/50
f 98/105/51 100/107/51 99/106/51
f 100/107/52 102/109/52 101/108/52
f 102/109/53 104/111/53 103/110/53
f 104/111/54 106/113/54 105/112/54
f 106/113/55 108/115/55 107/114/55
f 108/115/56 110/117/56 109/116/56
f 110/117/57 112/119/57 111/118/57
f 112/119/58 114/121/58 113/120/58
f 114/121/59 116/123/59 115/122/59
f 116/123/60 118/125/60 117/124/60
f 118/125/61 120/127/61 119/126/61
f 120/127/62 122/129/62 121/128/62
f 122/129/63 124/131/63 123/130/63
f 124/131/64 126/136/64 125/132/64
f 70/412/65 68/413/65 66/414/65
f 66/414/65 128/415/65 126/416/65
f 126/416/65 124/417/65 122/418/65
f 122/418/65 120/419/65 118/133/65
f 118/133/65 116/420/65 114/421/65
f 114/421/65 112/422/65 110/423/65
f 110/423/65 108/424/65 106/425/65
f 106/425/65 104/426/65 102/134/65
f 102/134/65 100/427/65 98/428/65
f 98/428/65 96/429/65 94/430/65
f 94/430/65 92/431/65 90/432/65
f 90/432/65 88/433/65 86/135/65
f 86/135/65 84/434/65 82/435/65
f 82/435/65 80/436/65 78/437/65
f 78/437/65 76/438/65 74/439/65
f 74/439/65 72/440/65 70/412/65
f 70/412/65 66/414/65 126/416/65
f 126/416/65 122/418/65 70/412/65
f 122/418/65 118/133/65 70/412/65
f 118/133/65 114/421/65 110/423/65
f 110/423/65 106/425/65 102/134/65
f 102/134/65 98/428/65 86/135/65
f 98/428/65 94/430/65 86/135/65
f 94/430/65 90/432/65 86/135/65
f 86/135/65 82/435/65 78/437/65
f 78/437/65 74/439/65 86/135/65
f 74/439/65 70/412/65 86/135/65
f 118/133/65 110/423/65 102/134/65
f 70/412/65 118/133/65 86/135/65
f 126/136/66 128/138/66 127/137/66
f 128/138/67 66/441/67 65/139/67
f 127/142/68 65/442/68 67/443/68
f 67/443/68 69/444/68 71/445/68
f 71/445/68 73/446/68 79/447/68
f 73/446/68 75/448/68 79/447/68
f 75/448/68 77/449/68 79/447/68
f 79/447/68 81/450/68 83/451/68
f 83/451/68 85/452/68 87/453/68
f 87/453/68 89/454/68 95/140/68
f 89/454/68 91/455/68 95/140/68
f 91/455/68 93/456/68 95/140/68
f 95/140/68 97/457/68 103/458/68
f 97/457/68 99/459/68 103/458/68
f 99/459/68 101/460/68 103/458/68
f 103/458/68 105/461/68 111/141/68
f 105/461/68 107/462/68 111/141/68
f 107/462/68 109/463/68 111/141/68
f 111/141/68 113/464/68 115/465/68
f 115/465/68 117/466/68 111/141/68
f 117/466/68 119/467/68 111/141/68
f 119/467/68 121/468/68 127/142/68
f 121/468/68 123/469/68 127/142/68
f 123/469/68 125/470/68 127/142/68
f 127/142/68 67/443/68 79/447/68
f 67/443/68 71/445/68 79/447/68
f 79/447/68 83/451/68 95/140/68
f 83/451/68 87/453/68 95/140/68
f 95/140/68 103/458/68 111/141/68
f 111/141/68 119/467/68 127/142/68
f 127/142/68 79/447/68 95/140/68
f 152/143/88 148/471/88 132/144/88
f 146/146/70 142/472/70 136/147/70
f 157/149/71 156/194/71 134/150/71
f 145/152/72 144/158/72 130/153/72
f 161/155/73 133/163/73 143/156/73
f 144/158/74 134/150/74 164/159/74
f 145/152/72 137/154/72 129/161/72
f 161/155/71 157/149/71 140/151/71
f 146/146/70 139/148/70 135/164/70
f 147/166/69 152/143/69 138/145/69
f 131/167/70 138/145/70 146/146/70
f 140/151/72 145/152/72 143/162/72
f 160/168/75 130/183/75 166/169/75
f 159/157/73 143/156/73 129/171/73
f 134/150/72 144/158/72 145/152/72
f 132/144/70 142/472/70 146/146/70
f 131/173/76 141/181/76 154/174/76
f 142/176/77 153/180/77 150/177/77
f 155/178/78 162/184/78 152/143/78
f 139/148/81 151/182/81 149/179/81
f 132/144/77 148/471/77 153/180/77
f 135/164/89 149/179/89 154/174/89
f 136/147/90 150/177/90 151/182/90
f 130/183/78 160/168/78 162/184/78
f 137/185/78 162/184/78 155/178/78
f 154/174/73 159/157/73 155/172/73
f 151/182/71 157/149/71 161/155/71
f 149/179/73 161/155/73 159/157/73
f 156/194/70 157/149/70 158/188/70
f 157/149/70 162/184/70 158/188/70
f 162/184/82 157/149/82 151/182/82
f 151/182/72 150/177/72 153/180/72
f 153/180/72 148/471/72 152/143/72
f 168/170/83 166/169/83 172/189/83
f 169/191/34 180/206/34 179/192/34
f 156/194/84 163/196/84 164/159/84
f 160/187/85 168/202/85 167/195/85
f 158/188/85 167/195/85 163/196/85
f 144/158/74 165/160/74 166/197/74
f 173/193/82 174/209/82 172/198/82
f 169/191/82 173/193/82 171/199/82
f 164/159/86 170/200/86 171/201/86
f 163/196/87 169/191/87 170/200/87
f 168/202/31 175/205/31 177/203/31
f 165/160/86 171/201/86 172/204/86
f 175/205/70 176/208/70 179/192/70
f 177/203/70 179/192/70 180/206/70
f 173/193/34 179/192/34 176/208/34
f 167/195/31 177/203/31 178/207/31
f 174/190/68 176/473/68 175/210/68
f 169/191/65 163/196/65 178/207/65
f 182/211/35 184/214/35 183/212/35
f 184/214/36 186/216/36 185/215/36
f 186/216/37 188/218/37 187/217/37
f 188/218/38 190/220/38 189/219/38
f 190/220/39 192/222/39 191/221/39
f 192/222/40 194/224/40 193/223/40
f 194/224/41 196/226/41 195/225/41
f 196/226/42 198/228/42 197/227/42
f 198/228/43 200/230/43 199/229/43
f 200/230/44 202/232/44 201/231/44
f 202/232/45 204/234/45 203/233/45
f 204/234/46 206/236/46 205/235/46
f 206/236/47 208/238/47 207/237/47
f 208/238/48 210/240/48 209/239/48
f 210/240/49 212/242/49 211/241/49
f 212/242/50 214/244/50 213/243/50
f 214/244/51 216/246/51 215/245/51
f 216/246/52 218/248/52 217/247/52
f 218/248/53 220/250/53 219/249/53
f 220/250/54 222/252/54 221/251/54
f 222/252/55 224/254/55 223/253/55
f 224/254/56 226/256/56 225/255/56
f 226/256/57 228/258/57 227/257/57
f 228/258/58 230/260/58 229/259/58
f 230/260/59 232/262/59 231/261/59
f 232/262/60 234/264/60 233/263/60
f 234/264/61 236/266/61 235/265/61
f 236/266/62 238/268/62 237/267/62
f 238/268/63 240/270/63 239/269/63
f 240/270/64 242/275/64 241/271/64
f 186/274/65 184/474/65 182/475/65
f 182/475/65 244/476/65 186/274/65
f 244/476/65 242/477/65 186/274/65
f 242/477/65 240/478/65 238/479/65
f 238/479/65 236/480/65 242/477/65
f 236/480/65 234/481/65 242/477/65
f 234/481/65 232/482/65 230/483/65
f 230/483/65 228/484/65 234/481/65
f 228/484/65 226/485/65 234/481/65
f 226/485/65 224/486/65 218/272/65
f 224/486/65 222/487/65 218/272/65
f 222/487/65 220/488/65 218/272/65
f 218/272/65 216/489/65 214/490/65
f 214/490/65 212/491/65 210/492/65
f 210/492/65 208/493/65 206/494/65
f 206/494/65 204/495/65 210/492/65
f 204/495/65 202/273/65 210/492/65
f 202/273/65 200/496/65 198/497/65
f 198/497/65 196/498/65 202/273/65
f 196/498/65 194/499/65 202/273/65
f 194/499/91 192/500/91 190/501/91
f 190/501/65 188/502/65 194/499/65
f 188/502/65 186/274/65 194/499/65
f 218/272/65 214/490/65 210/492/65
f 186/274/65 242/477/65 234/481/65
f 234/481/65 226/485/65 218/272/65
f 218/272/65 210/492/65 202/273/65
f 202/273/65 194/499/65 186/274/65
f 186/274/65 234/481/65 218/272/65
f 242/275/66 244/277/66 243/276/66
f 244/277/67 182/503/67 181/278/67
f 243/281/68 181/504/68 187/505/68
f 181/504/68 183/506/68 187/505/68
f 183/506/68 185/507/68 187/505/68
f 187/505/92 189/508/92 191/509/92
f 191/509/68 193/510/68 187/505/68
f 193/510/68 195/511/68 187/505/68
f 195/511/68 197/512/68 199/513/68
f 199/513/68 201/514/68 203/515/68
f 203/515/92 205/516/92 207/517/92
f 207/517/68 209/518/68 203/515/68
f 209/518/68 211/279/68 203/515/68
f 211/279/68 213/519/68 215/520/68
f 215/520/68 217/521/68 219/522/68
f 219/522/93 221/523/93 223/524/93
f 223/524/68 225/525/68 219/522/68
f 225/525/68 227/280/68 219/522/68
f 227/280/68 229/526/68 235/527/68
f 229/526/68 231/528/68 235/527/68
f 231/528/68 233/529/68 235/527/68
f 235/527/93 237/530/93 239/531/93
f 239/531/68 241/532/68 243/281/68
f 195/511/68 199/513/68 203/515/68
f 211/279/68 215/520/68 219/522/68
f 235/527/68 239/531/68 243/281/68
f 243/281/68 187/505/68 195/511/68
f 195/511/68 203/515/68 211/279/68
f 211/279/68 219/522/68 227/280/68
f 227/280/68 235/527/68 243/281/68
f 243/281/68 195/511/68 211/279/68
f 246/282/35 248/285/35 247/283/35
f 248/285/36 250/287/36 249/286/36
f 250/287/37 252/289/37 251/288/37
f 252/289/38 254/291/38 253/290/38
f 254/291/39 256/293/39 255/292/39
f 256/293/40 258/295/40 257/294/40
f 258/295/41 260/297/41 259/296/41
f 260/297/42 262/299/42 261/298/42
f 262/299/43 264/301/43 263/300/43
f 264/301/44 266/303/44 265/302/44
f 266/303/45 268/305/45 267/304/45
f 268/305/46 270/307/46 269/306/46
f 270/307/47 272/309/47 271/308/47
f 272/309/48 274/311/48 273/310/48
f 274/311/49 276/313/49 275/312/49
f 276/313/50 278/315/50 277/314/50
f 278/315/51 280/317/51 279/316/51
f 280/317/52 282/319/52 281/318/52
f 282/319/53 284/321/53 283/320/53
f 284/321/54 286/323/54 285/322/54
f 286/323/55 288/325/55 287/324/55
f 288/325/56 290/327/56 289/326/56
f 290/327/57 292/329/57 291/328/57
f 292/329/58 294/331/58 293/330/58
f 294/331/59 296/333/59 295/332/59
f 296/333/60 298/335/60 297/334/60
f 298/335/61 300/337/61 299/336/61
f 300/337/62 302/339/62 301/338/62
f 302/339/63 304/341/63 303/340/63
f 304/341/64 306/346/64 305/342/64
f 250/345/65 248/533/65 246/534/65
f 246/534/65 308/535/65 306/536/65
f 306/536/65 304/537/65 302/538/65
f 302/538/65 300/539/65 298/540/65
f 298/540/65 296/541/65 294/542/65
f 294/542/65 292/543/65 290/544/65
f 290/544/65 288/545/65 286/546/65
f 286/546/65 284/547/65 282/343/65
f 282/343/65 280/548/65 278/549/65
f 278/549/65 276/550/65 274/551/65
f 274/551/65 272/552/65 270/553/65
f 270/553/65 268/554/65 266/344/65
f 266/344/65 264/555/65 262/556/65
f 262/556/65 260/557/65 258/558/65
f 258/558/65 256/559/65 254/560/65
f 254/560/65 252/561/65 250/345/65
f 250/345/65 246/534/65 306/536/65
f 306/536/65 302/538/65 250/345/65
f 302/538/65 298/540/65 250/345/65
f 298/540/65 294/542/65 290/544/65
f 290/544/65 286/546/65 282/343/65
f 282/343/65 278/549/65 274/551/65
f 274/551/65 270/553/65 282/343/65
f 270/553/65 266/344/65 282/343/65
f 266/344/65 262/556/65 258/558/65
f 258/558/65 254/560/65 266/344/65
f 254/560/65 250/345/65 266/344/65
f 298/540/65 290/544/65 282/343/65
f 250/345/65 298/540/65 282/343/65
f 306/346/66 308/348/66 307/347/66
f 308/348/67 246/562/67 245/349/67
f 307/352/68 245/563/68 247/564/68
f 247/564/68 249/565/68 251/566/68
f 251/566/68 253/567/68 259/568/68
f 253/567/68 255/569/68 259/568/68
f 255/569/68 257/570/68 259/568/68
f 259/568/68 261/571/68 263/572/68
f 263/572/68 265/573/68 267/574/68
f 267/574/68 269/575/68 275/350/68
f 269/575/68 271/576/68 275/350/68
f 271/576/68 273/577/68 275/350/68
f 275/350/68 277/578/68 279/579/68
f 279/579/68 281/580/68 283/581/68
f 283/581/68 285/582/68 291/351/68
f 285/582/68 287/583/68 291/351/68
f 287/583/68 289/584/68 291/351/68
f 291/351/68 293/585/68 295/586/68
f 295/586/68 297/587/68 299/588/68
f 299/588/68 301/589/68 307/352/68
f 301/589/68 303/590/68 307/352/68
f 303/590/68 305/591/68 307/352/68
f 307/352/68 247/564/68 259/568/68
f 247/564/68 251/566/68 259/568/68
f 259/568/68 263/572/68 275/350/68
f 263/572/68 267/574/68 275/350/68
f 275/350/68 279/579/68 291/351/68
f 279/579/68 283/581/68 291/351/68
f 291/351/68 295/586/68 307/352/68
f 295/586/68 299/588/68 307/352/68
f 307/352/68 259/568/68 275/350/68
