# Blender v3.6.23 OBJ File: ''
# www.blender.org
mtllib hammer.mtl
o 立方体.001
v -0.538297 0.106168 0.629595
v -0.387740 0.149631 0.667444
v -0.504791 0.198380 0.623519
v 0.226460 0.212334 0.629595
v 0.330821 0.149631 0.667444
v 0.447872 0.198380 0.623519
v 0.481378 -0.106166 0.629595
v 0.330821 -0.149629 0.667444
v 0.447872 -0.198378 0.623519
v -0.283379 -0.212332 0.629595
v -0.387740 -0.149629 0.667444
v -0.504791 -0.198378 0.623519
v 0.217751 -0.102539 0.358556
v 0.330821 -0.149629 0.406843
v 0.209706 -0.198378 0.392092
v -0.274670 -0.102539 0.715730
v -0.266625 -0.198378 0.709894
v -0.028459 -0.102539 0.715730
v 0.209706 -0.198378 0.709894
v 0.217751 -0.102539 0.715730
v -0.028459 0.102541 0.715730
v 0.217751 0.000001 0.715730
v 0.217751 0.102541 0.715730
v -0.504791 0.099190 0.709894
v -0.274670 0.000001 0.715730
v -0.274670 0.102541 0.715730
v -0.274670 -0.102539 0.358556
v -0.028459 -0.148374 0.361112
v -0.266625 -0.198378 0.392092
v -0.028459 0.102541 0.358556
v -0.274670 0.000001 0.358556
v -0.274670 0.102541 0.358556
v 0.447872 0.099191 0.364392
v 0.217751 0.000001 0.358556
v 0.217751 0.102541 0.358556
v -0.292092 -0.219591 0.537143
v -0.504791 -0.198378 0.450767
v -0.283379 -0.212333 0.444691
v 0.226460 -0.212333 0.444691
v -0.028459 -0.229423 0.537143
v -0.028459 -0.219591 0.441531
v -0.028459 -0.219591 0.632755
v 0.226460 -0.212332 0.629595
v 0.498806 -0.109795 0.537143
v 0.447872 -0.198378 0.450767
v 0.481379 -0.106166 0.444691
v 0.481379 0.106168 0.444691
v 0.522415 0.000001 0.537143
v 0.498807 0.000001 0.441531
v 0.447872 0.099190 0.709894
v 0.498806 0.000001 0.632755
v 0.481378 0.106168 0.629595
v 0.235173 0.219593 0.537143
v 0.447872 0.198380 0.450767
v 0.226460 0.212335 0.444691
v -0.283379 0.212335 0.444691
v -0.028459 0.229425 0.537143
v -0.028459 0.219593 0.441531
v -0.266625 0.198380 0.709894
v -0.028459 0.219593 0.632755
v -0.283379 0.212334 0.629595
v -0.555725 0.109797 0.537143
v -0.504791 0.198380 0.450767
v -0.538298 0.106168 0.444691
v -0.538298 -0.106166 0.444691
v -0.579334 0.000001 0.537143
v -0.555726 0.000001 0.441531
v -0.504791 -0.099188 0.709894
v -0.555725 0.000001 0.632755
v -0.538297 -0.106166 0.629595
v -0.555725 -0.109795 0.537143
v -0.513835 -0.202144 0.537143
v -0.504791 -0.099189 0.364392
v -0.513835 0.000001 0.361112
v -0.387740 -0.149629 0.406843
v -0.387740 0.149631 0.406843
v -0.504791 0.099191 0.364392
v -0.292092 0.219593 0.537143
v -0.513835 0.202146 0.537143
v -0.266625 0.198380 0.392092
v -0.028459 0.148376 0.361112
v 0.330821 0.149631 0.406843
v 0.209706 0.198380 0.392092
v 0.498806 0.109797 0.537143
v 0.456915 0.202146 0.537143
v 0.456916 0.000001 0.361112
v 0.447872 -0.099189 0.364392
v 0.235173 -0.219591 0.537143
v 0.456915 -0.202144 0.537143
v -0.028459 0.000001 0.358556
v -0.028459 0.000001 0.715730
v -0.028459 0.202146 0.713174
v 0.456915 0.000001 0.713174
v 0.209706 0.198380 0.709894
v 0.447872 -0.099188 0.709894
v -0.028459 -0.202144 0.713174
v -0.028459 -0.102539 0.358556
v -0.079720 0.034479 0.489163
v -0.058497 0.048760 0.646842
v -0.066423 0.056303 0.419308
v 0.028969 0.068957 0.489163
v 0.043976 0.048760 0.646842
v 0.051902 0.056303 0.419308
v 0.065199 -0.034477 0.489163
v 0.043976 -0.048758 0.646842
v 0.051902 -0.056301 0.419308
v -0.043490 -0.068955 0.489163
v -0.058497 -0.048758 0.646842
v -0.066423 -0.056301 0.419308
v 0.051902 -0.028150 -0.513143
v 0.022321 -0.056301 -0.513143
v 0.025513 -0.031188 -0.580228
v -0.066423 -0.028150 0.730125
v -0.036842 -0.056301 0.730125
v -0.040034 -0.031188 0.797209
v 0.025513 -0.031188 0.797209
v -0.007261 -0.059717 0.767833
v 0.022321 -0.056301 0.730125
v -0.007261 0.031190 0.797209
v 0.025513 0.000001 0.797209
v 0.025513 0.031190 0.797209
v -0.040034 0.031190 0.797209
v -0.070013 0.000001 0.767833
v -0.040034 0.000001 0.797209
v -0.040034 -0.031188 -0.580228
v -0.007261 -0.059717 -0.550852
v -0.036842 -0.056301 -0.513143
v -0.007261 0.031190 -0.580228
v -0.040034 0.000001 -0.580228
v -0.040034 0.031190 -0.580228
v 0.025513 0.031190 -0.580228
v 0.055492 0.000001 -0.550852
v 0.025513 0.000001 -0.580228
v -0.046948 -0.075536 0.108491
v -0.066423 -0.056301 -0.202326
v -0.043490 -0.068955 -0.272181
v 0.028969 -0.068955 -0.272181
v -0.007261 -0.084452 0.108491
v -0.007261 -0.075536 -0.308514
v -0.007261 -0.075536 0.525496
v 0.028969 -0.068955 0.489163
v 0.072115 -0.037768 0.108491
v 0.051902 -0.056301 -0.202326
v 0.065199 -0.034477 -0.272181
v 0.065199 0.034479 -0.272181
v 0.081484 0.000001 0.108491
v 0.072115 0.000001 -0.308514
v 0.051902 0.028152 0.730125
v 0.072115 0.000001 0.525496
v 0.065199 0.034479 0.489163
v 0.032427 0.075538 0.108491
v 0.051902 0.056303 -0.202326
v 0.028969 0.068957 -0.272181
v -0.043490 0.068957 -0.272181
v -0.007261 0.084454 0.108491
v -0.007261 0.075538 -0.308514
v -0.036842 0.056303 0.730125
v -0.007261 0.075538 0.525496
v -0.043490 0.068957 0.489163
v -0.086636 0.037770 0.108491
v -0.066423 0.056303 -0.202326
v -0.079720 0.034479 -0.272181
v -0.079720 -0.034477 -0.272181
v -0.096005 0.000001 0.108491
v -0.086636 0.000001 -0.308514
v -0.086636 0.000001 0.525496
v -0.079720 -0.034477 0.489163
v -0.086636 -0.037768 0.108491
v -0.070013 -0.059717 0.108491
v -0.066423 -0.028150 -0.513143
v -0.070013 0.000001 -0.550852
v -0.058497 -0.048758 -0.429860
v -0.058497 0.048760 -0.429860
v -0.066423 0.028152 -0.513143
v -0.046948 0.075538 0.108491
v -0.070013 0.059719 0.108491
v -0.036842 0.056303 -0.513143
v -0.007261 0.059719 -0.550852
v 0.043976 0.048760 -0.429860
v 0.022321 0.056303 -0.513143
v 0.072115 0.037770 0.108491
v 0.055492 0.059719 0.108491
v 0.051902 0.028152 -0.513143
v 0.043976 -0.048758 -0.429860
v 0.032427 -0.075536 0.108491
v 0.055492 -0.059717 0.108491
v -0.007261 0.000001 -0.580228
v -0.007261 0.000001 0.797209
v -0.007261 0.059719 0.767833
v -0.066423 0.028152 0.730125
v 0.055492 0.000001 0.767833
v 0.022321 0.056303 0.730125
v 0.051902 -0.028150 0.730125
v -0.007261 -0.031188 0.797209
v -0.007261 -0.031188 -0.580228
v -0.513834 0.000001 0.713174
vt 0.327462 0.171345
vt 0.366481 0.210365
vt 0.327462 0.210365
vt 0.327462 0.327424
vt 0.366481 0.366444
vt 0.327462 0.366444
vt 0.327462 0.483504
vt 0.366481 0.522524
vt 0.327462 0.522524
vt 0.327462 0.639584
vt 0.366481 0.678604
vt 0.327462 0.678604
vt 0.171382 0.483504
vt 0.210402 0.522524
vt 0.171382 0.522524
vt 0.483541 0.483504
vt 0.522561 0.522524
vt 0.483541 0.522524
vt 0.444521 0.483504
vt 0.405501 0.522524
vt 0.405501 0.483504
vt 0.444521 0.405464
vt 0.405501 0.444484
vt 0.405501 0.405464
vt 0.522561 0.405464
vt 0.483541 0.444484
vt 0.483541 0.405464
vt 0.093342 0.483504
vt 0.132362 0.522524
vt 0.093342 0.522524
vt 0.132362 0.405464
vt 0.093342 0.444484
vt 0.093342 0.405464
vt 0.210402 0.405464
vt 0.171382 0.444484
vt 0.171382 0.405464
vt 0.288442 0.639584
vt 0.249422 0.678604
vt 0.249422 0.639584
vt 0.249422 0.561544
vt 0.288442 0.600564
vt 0.249422 0.600564
vt 0.366481 0.561544
vt 0.327462 0.600564
vt 0.327462 0.561544
vt 0.288442 0.483504
vt 0.249422 0.522524
vt 0.249422 0.483504
vt 0.249422 0.405464
vt 0.288442 0.444484
vt 0.249422 0.444484
vt 0.366481 0.405464
vt 0.327462 0.444484
vt 0.327462 0.405464
vt 0.288442 0.327424
vt 0.249422 0.366444
vt 0.249422 0.327424
vt 0.249422 0.249385
vt 0.288442 0.288405
vt 0.249422 0.288405
vt 0.366481 0.249385
vt 0.327462 0.288405
vt 0.327462 0.249385
vt 0.288442 0.171345
vt 0.249422 0.210365
vt 0.249422 0.171345
vt 0.249422 0.093305
vt 0.288442 0.132325
vt 0.249422 0.132325
vt 0.366481 0.093305
vt 0.327462 0.132325
vt 0.327462 0.093305
vt 0.288442 0.093305
vt 0.327462 0.054285
vt 0.288442 0.054285
vt 0.366481 0.054285
vt 0.210402 0.093305
vt 0.210402 0.132325
vt 0.210402 0.054285
vt 0.249422 0.054285
vt 0.210402 0.210365
vt 0.210402 0.171345
vt 0.288442 0.249385
vt 0.288442 0.210365
vt 0.210402 0.249385
vt 0.210402 0.288405
vt 0.210402 0.366444
vt 0.210402 0.327424
vt 0.288442 0.405464
vt 0.288442 0.366444
vt 0.210402 0.444484
vt 0.210402 0.483504
vt 0.288442 0.561544
vt 0.288442 0.522524
vt 0.210402 0.561544
vt 0.210402 0.600564
vt 0.210402 0.678604
vt 0.210402 0.639584
vt 0.132362 0.444484
vt 0.132362 0.366444
vt 0.171382 0.366444
vt 0.054322 0.405464
vt 0.054322 0.444484
vt 0.054322 0.366444
vt 0.093342 0.366444
vt 0.054322 0.522524
vt 0.054322 0.483504
vt 0.444521 0.444484
vt 0.483541 0.366444
vt 0.444521 0.366444
vt 0.522561 0.366444
vt 0.366481 0.444484
vt 0.405501 0.366444
vt 0.366481 0.483504
vt 0.444521 0.522524
vt 0.522561 0.483504
vt 0.132362 0.483504
vt 0.288442 0.678604
vt 0.366481 0.639584
vt 0.366481 0.327424
vt 0.366481 0.171345
vt 0.750833 0.438673
vt 0.789853 0.477693
vt 0.750833 0.477693
vt 0.750833 0.594753
vt 0.789853 0.633773
vt 0.750833 0.633773
vt 0.750833 0.750833
vt 0.789853 0.789853
vt 0.750833 0.789853
vt 0.750833 0.906913
vt 0.789853 0.945932
vt 0.750833 0.945932
vt 0.633773 0.750833
vt 0.594753 0.789853
vt 0.594753 0.750833
vt 0.945932 0.750833
vt 0.906913 0.789853
vt 0.906913 0.750833
vt 0.828873 0.750833
vt 0.867893 0.789853
vt 0.828873 0.789853
vt 0.867893 0.672793
vt 0.828873 0.711813
vt 0.828873 0.672793
vt 0.906913 0.672793
vt 0.945932 0.711813
vt 0.906913 0.711813
vt 0.516713 0.750833
vt 0.555733 0.789853
vt 0.516713 0.789853
vt 0.555733 0.672793
vt 0.516713 0.711813
vt 0.516713 0.672793
vt 0.594753 0.672793
vt 0.633773 0.711813
vt 0.594753 0.711813
vt 0.711813 0.906913
vt 0.672793 0.945932
vt 0.672793 0.906913
vt 0.672793 0.828873
vt 0.711813 0.867893
vt 0.672793 0.867893
vt 0.789853 0.828873
vt 0.750833 0.867893
vt 0.750833 0.828873
vt 0.711813 0.750833
vt 0.672793 0.789853
vt 0.672793 0.750833
vt 0.672793 0.672793
vt 0.711813 0.711813
vt 0.672793 0.711813
vt 0.789853 0.672793
vt 0.750833 0.711813
vt 0.750833 0.672793
vt 0.711813 0.594753
vt 0.672793 0.633773
vt 0.672793 0.594753
vt 0.672793 0.516713
vt 0.711813 0.555733
vt 0.672793 0.555733
vt 0.789853 0.516713
vt 0.750833 0.555733
vt 0.750833 0.516713
vt 0.711813 0.438673
vt 0.672793 0.477693
vt 0.672793 0.438673
vt 0.672793 0.360634
vt 0.711813 0.399654
vt 0.672793 0.399654
vt 0.789853 0.360634
vt 0.750833 0.399654
vt 0.750833 0.360634
vt 0.711813 0.360634
vt 0.750833 0.321614
vt 0.711813 0.321614
vt 0.789853 0.321614
vt 0.633773 0.360634
vt 0.633773 0.399654
vt 0.633773 0.321614
vt 0.672793 0.321614
vt 0.633773 0.477693
vt 0.633773 0.438673
vt 0.711813 0.516713
vt 0.711813 0.477693
vt 0.633773 0.516713
vt 0.633773 0.555733
vt 0.633773 0.633773
vt 0.633773 0.594753
vt 0.711813 0.672793
vt 0.711813 0.633773
vt 0.633773 0.672793
vt 0.633773 0.789853
vt 0.711813 0.828873
vt 0.711813 0.789853
vt 0.633773 0.828873
vt 0.633773 0.867893
vt 0.633773 0.945932
vt 0.633773 0.906913
vt 0.555733 0.711813
vt 0.555733 0.633773
vt 0.594753 0.633773
vt 0.477693 0.711813
vt 0.477693 0.672793
vt 0.516713 0.633773
vt 0.477693 0.633773
vt 0.477693 0.750833
vt 0.477693 0.789853
vt 0.867893 0.711813
vt 0.867893 0.633773
vt 0.906913 0.633773
vt 0.945932 0.672793
vt 0.789853 0.711813
vt 0.828873 0.633773
vt 0.789853 0.750833
vt 0.867893 0.750833
vt 0.555733 0.750833
vt 0.711813 0.945932
vt 0.789853 0.906913
vt 0.789853 0.594753
vt 0.789853 0.438673
vt 0.522561 0.444484
vt 0.366481 0.600564
vt 0.366481 0.288405
vt 0.366481 0.132325
vt 0.945932 0.789853
vt 0.789853 0.867893
vt 0.789853 0.555733
vt 0.789853 0.399654
vt 0.945932 0.633773
vn -0.2852 0.1658 0.9440
vn 0.0591 0.5861 0.8081
vn 0.2852 -0.1658 0.9440
vn -0.0591 -0.5861 0.8081
vn 0.2468 -0.3385 -0.9080
vn -0.3605 -0.0868 0.9287
vn 0.0000 -0.0608 0.9982
vn 0.0000 0.0000 1.0000
vn -0.0254 0.0000 0.9997
vn -0.0524 -0.3337 -0.9412
vn 0.0000 0.0000 -1.0000
vn 0.0254 0.0000 -0.9997
vn -0.0650 -0.9943 -0.0842
vn 0.0296 -0.9943 -0.1022
vn 0.0302 -0.9837 0.1772
vn 0.9193 -0.3464 -0.1869
vn 0.9577 0.1642 -0.2365
vn 0.9059 0.1604 0.3919
vn 0.0650 0.9943 -0.0842
vn -0.0296 0.9943 -0.1022
vn -0.0302 0.9837 0.1772
vn -0.9193 0.3464 -0.1869
vn -0.9577 -0.1642 -0.2365
vn -0.9059 -0.1604 0.3919
vn -0.9600 -0.2064 0.1891
vn -0.9049 -0.4105 0.1126
vn -0.2852 -0.1658 0.9440
vn -0.8828 -0.0957 -0.4599
vn -0.3202 -0.9229 -0.2138
vn -0.9193 -0.3464 -0.1869
vn -0.3202 0.9229 -0.2138
vn -0.8828 0.0957 -0.4599
vn -0.9577 0.1642 -0.2365
vn -0.0371 0.9960 0.0817
vn -0.0783 0.9956 0.0516
vn -0.0591 0.5861 0.8081
vn 0.0708 0.7468 -0.6613
vn -0.3862 0.8537 -0.3495
vn -0.0650 0.9943 -0.0842
vn 0.3862 0.8537 -0.3495
vn -0.0708 0.7468 -0.6613
vn 0.0296 0.9943 -0.1022
vn 0.9600 0.2064 0.1891
vn 0.9049 0.4105 0.1126
vn 0.2852 0.1658 0.9440
vn 0.8828 0.0957 -0.4599
vn 0.3202 0.9229 -0.2138
vn 0.9193 0.3464 -0.1869
vn 0.3202 -0.9229 -0.2138
vn 0.8828 -0.0957 -0.4599
vn 0.9577 -0.1642 -0.2365
vn 0.0371 -0.9960 0.0817
vn 0.0783 -0.9956 0.0516
vn 0.0591 -0.5861 0.8081
vn -0.0708 -0.7468 -0.6613
vn 0.3862 -0.8537 -0.3495
vn 0.0650 -0.9943 -0.0842
vn -0.3862 -0.8537 -0.3495
vn 0.0708 -0.7468 -0.6613
vn -0.0296 -0.9943 -0.1022
vn 0.0000 0.0557 -0.9984
vn 0.2468 0.3385 -0.9080
vn -0.0107 0.0340 -0.9994
vn -0.0285 0.6815 -0.7313
vn -0.0524 0.3337 -0.9412
vn -0.0285 -0.6815 -0.7313
vn -0.0107 -0.0340 -0.9994
vn -0.0142 0.0256 0.9996
vn -0.3605 0.0868 0.9287
vn 0.0107 0.0340 0.9994
vn 0.0285 0.6815 0.7313
vn 0.0000 0.0608 0.9982
vn 0.0285 -0.6815 0.7313
vn 0.0107 -0.0340 0.9994
vn -0.0142 -0.0256 0.9996
vn 0.0000 -0.0557 -0.9984
vn -0.0783 -0.9956 0.0516
vn -0.0371 -0.9960 0.0817
vn -0.0302 -0.9837 0.1772
vn 0.9049 -0.4105 0.1126
vn 0.9600 -0.2064 0.1891
vn 0.9059 -0.1604 0.3919
vn 0.0783 0.9956 0.0516
vn 0.0371 0.9960 0.0817
vn 0.0302 0.9837 0.1772
vn -0.9049 0.4105 0.1126
vn -0.9600 0.2064 0.1891
vn -0.9059 0.1604 0.3919
vn -0.7776 0.6270 0.0479
vn 0.5891 0.8067 0.0473
vn 0.7776 -0.6270 0.0479
vn -0.5891 -0.8067 0.0473
vn 0.6706 -0.7047 -0.2319
vn -0.6706 -0.7047 0.2319
vn 0.4667 -0.8353 0.2905
vn -0.6999 0.0000 0.7142
vn -0.6999 0.0000 0.7143
vn -0.4668 -0.8353 -0.2905
vn 0.6999 0.0000 -0.7143
vn -0.5278 -0.8491 -0.0195
vn 0.1990 -0.9798 -0.0209
vn 0.2339 -0.9706 0.0574
vn 0.8243 -0.5658 -0.0199
vn 0.9755 0.2188 -0.0219
vn 0.9646 0.2567 0.0600
vn 0.5278 0.8491 -0.0195
vn -0.1990 0.9798 -0.0209
vn -0.2339 0.9706 0.0574
vn -0.8243 0.5658 -0.0199
vn -0.9755 -0.2188 -0.0219
vn -0.9646 -0.2567 0.0600
vn -0.9704 -0.2407 0.0197
vn -0.7971 -0.6037 0.0158
vn -0.7776 -0.6270 0.0479
vn -0.9746 -0.2138 -0.0669
vn -0.8255 -0.5611 -0.0603
vn -0.8243 -0.5658 -0.0199
vn -0.8255 0.5611 -0.0603
vn -0.9746 0.2138 -0.0669
vn -0.9755 0.2188 -0.0219
vn -0.2192 0.9755 0.0189
vn -0.5655 0.8246 0.0156
vn -0.5891 0.8067 0.0473
vn -0.1945 0.9788 -0.0639
vn -0.5233 0.8501 -0.0591
vn -0.5278 0.8491 -0.0195
vn 0.5233 0.8501 -0.0591
vn 0.1945 0.9788 -0.0639
vn 0.1990 0.9798 -0.0209
vn 0.9704 0.2407 0.0197
vn 0.7971 0.6037 0.0158
vn 0.7776 0.6270 0.0479
vn 0.9746 0.2138 -0.0669
vn 0.8255 0.5611 -0.0603
vn 0.8243 0.5658 -0.0199
vn 0.8255 -0.5611 -0.0603
vn 0.9746 -0.2138 -0.0669
vn 0.9755 -0.2188 -0.0219
vn 0.2191 -0.9755 0.0189
vn 0.5655 -0.8246 0.0156
vn 0.5891 -0.8067 0.0473
vn 0.1945 -0.9788 -0.0639
vn 0.5233 -0.8501 -0.0591
vn 0.5278 -0.8491 -0.0195
vn -0.5233 -0.8501 -0.0591
vn -0.1945 -0.9788 -0.0639
vn -0.1990 -0.9798 -0.0209
vn 0.0000 0.7174 -0.6967
vn 0.6706 0.7047 -0.2319
vn -0.8126 0.5014 -0.2970
vn -0.6850 0.7198 -0.1129
vn -0.4668 0.8353 -0.2905
vn -0.6850 -0.7198 -0.1129
vn -0.8126 -0.5014 -0.2970
vn 0.0000 0.7174 0.6967
vn -0.6706 0.7047 0.2319
vn 0.8126 0.5014 0.2970
vn 0.6850 0.7198 0.1129
vn 0.4667 0.8353 0.2905
vn 0.6850 -0.7198 0.1129
vn 0.8126 -0.5014 0.2970
vn 0.0000 -0.7174 0.6967
vn 0.0000 -0.7174 -0.6967
vn -0.5655 -0.8246 0.0156
vn -0.2192 -0.9755 0.0189
vn -0.2339 -0.9706 0.0574
vn 0.7971 -0.6037 0.0158
vn 0.9704 -0.2407 0.0197
vn 0.9646 -0.2567 0.0600
vn 0.5655 0.8246 0.0156
vn 0.2191 0.9755 0.0189
vn 0.2339 0.9706 0.0574
vn -0.7971 0.6037 0.0158
vn -0.9704 0.2407 0.0197
vn -0.9646 0.2567 0.0600
vn -0.3202 0.9229 0.2138
vn 0.4340 0.8680 0.2414
vn 0.3202 -0.9229 0.2138
vn -0.4340 -0.8680 0.2414
vn 0.0285 -0.6815 -0.7313
vn -0.0285 -0.6815 0.7313
vn 0.0142 -0.0256 0.9996
vn -0.0107 0.0340 0.9994
vn 0.0107 0.0340 -0.9994
vn -0.0783 -0.9956 -0.0516
vn 0.0371 -0.9960 -0.0817
vn 0.0184 -0.9771 0.2120
vn 0.9049 -0.4105 -0.1126
vn 0.9600 0.2064 -0.1891
vn 0.8828 0.0957 0.4599
vn 0.0783 0.9956 -0.0516
vn -0.0371 0.9960 -0.0817
vn -0.0184 0.9771 0.2120
vn -0.9049 0.4105 -0.1126
vn -0.9600 -0.2064 -0.1891
vn -0.8828 -0.0957 0.4599
vn -0.9577 -0.1642 0.2365
vn -0.9193 -0.3463 0.1869
vn -0.3202 -0.9229 0.2138
vn -0.9059 -0.1604 -0.3919
vn -0.2852 -0.1658 -0.9440
vn -0.9049 -0.4105 -0.1126
vn -0.2852 0.1658 -0.9440
vn -0.9059 0.1604 -0.3919
vn -0.9600 0.2064 -0.1891
vn -0.0296 0.9943 0.1022
vn -0.0650 0.9943 0.0842
vn -0.4340 0.8680 0.2414
vn -0.0307 0.9636 -0.2654
vn -0.0591 0.5861 -0.8081
vn -0.0783 0.9956 -0.0516
vn 0.0591 0.5861 -0.8081
vn 0.0307 0.9636 -0.2654
vn 0.0371 0.9960 -0.0817
vn 0.9577 0.1642 0.2365
vn 0.9193 0.3463 0.1869
vn 0.3202 0.9229 0.2138
vn 0.9059 0.1604 -0.3919
vn 0.2852 0.1658 -0.9440
vn 0.9049 0.4105 -0.1126
vn 0.2852 -0.1658 -0.9440
vn 0.9059 -0.1604 -0.3919
vn 0.9600 -0.2064 -0.1891
vn 0.0296 -0.9943 0.1022
vn 0.0650 -0.9943 0.0842
vn 0.4340 -0.8680 0.2414
vn 0.0307 -0.9636 -0.2654
vn 0.0591 -0.5861 -0.8081
vn 0.0783 -0.9956 -0.0516
vn -0.0591 -0.5861 -0.8081
vn -0.0307 -0.9636 -0.2654
vn -0.0371 -0.9960 -0.0817
vn 0.0524 0.3337 -0.9412
vn 0.0285 0.6815 -0.7313
vn -0.0254 0.0000 -0.9997
vn -0.2468 0.3385 -0.9080
vn -0.2468 -0.3385 -0.9080
vn -0.0285 0.6815 0.7313
vn 0.0254 0.0000 0.9997
vn 0.3605 0.0868 0.9287
vn 0.0142 0.0256 0.9996
vn 0.3605 -0.0868 0.9287
vn -0.0107 -0.0340 0.9994
vn 0.0524 -0.3337 -0.9412
vn 0.0107 -0.0340 -0.9994
vn -0.0650 -0.9943 0.0842
vn -0.0296 -0.9943 0.1022
vn -0.0184 -0.9771 0.2120
vn 0.9193 -0.3463 0.1869
vn 0.9577 -0.1642 0.2365
vn 0.8828 -0.0957 0.4599
vn 0.0650 0.9943 0.0842
vn 0.0296 0.9943 0.1022
vn 0.0184 0.9771 0.2120
vn -0.9193 0.3463 0.1869
vn -0.9577 0.1642 0.2365
vn -0.8828 0.0957 0.4599
vn -0.8255 0.5611 0.0603
vn 0.5233 0.8501 0.0591
vn 0.8255 -0.5611 0.0603
vn -0.5233 -0.8501 0.0591
vn 0.6850 -0.7198 -0.1129
vn -0.6850 -0.7198 0.1129
vn -0.8126 0.5014 0.2970
vn 0.8126 0.5014 -0.2970
vn -0.5655 -0.8246 -0.0156
vn 0.2191 -0.9755 -0.0189
vn 0.1945 -0.9788 0.0639
vn 0.7971 -0.6037 -0.0158
vn 0.9704 0.2407 -0.0197
vn 0.9746 0.2138 0.0669
vn 0.5655 0.8246 -0.0156
vn -0.2192 0.9755 -0.0189
vn -0.1945 0.9788 0.0639
vn -0.7971 0.6037 -0.0158
vn -0.9704 -0.2407 -0.0197
vn -0.9746 -0.2138 0.0669
vn -0.9755 -0.2188 0.0219
vn -0.8243 -0.5658 0.0199
vn -0.8255 -0.5611 0.0603
vn -0.9646 -0.2567 -0.0600
vn -0.7776 -0.6270 -0.0479
vn -0.7971 -0.6037 -0.0158
vn -0.7776 0.6270 -0.0479
vn -0.9646 0.2567 -0.0600
vn -0.9704 0.2407 -0.0197
vn -0.1990 0.9798 0.0209
vn -0.5278 0.8491 0.0195
vn -0.5233 0.8501 0.0591
vn -0.2339 0.9706 -0.0574
vn -0.5891 0.8067 -0.0473
vn -0.5655 0.8246 -0.0156
vn 0.5891 0.8067 -0.0473
vn 0.2339 0.9706 -0.0574
vn 0.2191 0.9755 -0.0189
vn 0.9755 0.2188 0.0219
vn 0.8243 0.5658 0.0199
vn 0.8255 0.5611 0.0603
vn 0.9646 0.2567 -0.0600
vn 0.7776 0.6270 -0.0479
vn 0.7971 0.6037 -0.0158
vn 0.7776 -0.6270 -0.0479
vn 0.9646 -0.2567 -0.0600
vn 0.9704 -0.2407 -0.0197
vn 0.1990 -0.9798 0.0209
vn 0.5278 -0.8491 0.0195
vn 0.5233 -0.8501 0.0591
vn 0.2339 -0.9706 -0.0574
vn 0.5891 -0.8067 -0.0473
vn 0.5655 -0.8246 -0.0156
vn -0.5891 -0.8067 -0.0473
vn -0.2339 -0.9706 -0.0574
vn -0.2192 -0.9755 -0.0189
vn 0.4668 0.8353 -0.2905
vn 0.6850 0.7198 -0.1129
vn -0.6999 0.0000 -0.7143
vn -0.6706 0.7047 -0.2319
vn -0.6706 -0.7047 -0.2319
vn -0.4668 0.8353 0.2905
vn -0.6850 0.7198 0.1129
vn 0.6999 0.0000 0.7142
vn 0.6999 0.0000 0.7143
vn 0.6706 0.7047 0.2319
vn 0.6706 -0.7047 0.2319
vn -0.4668 -0.8353 0.2905
vn -0.8126 -0.5014 0.2970
vn 0.4668 -0.8353 -0.2905
vn 0.8126 -0.5014 -0.2970
vn -0.5278 -0.8491 0.0195
vn -0.1990 -0.9798 0.0209
vn -0.1945 -0.9788 0.0639
vn 0.8243 -0.5658 0.0199
vn 0.9755 -0.2188 0.0219
vn 0.9746 -0.2138 0.0669
vn 0.5278 0.8491 0.0195
vn 0.1990 0.9798 0.0209
vn 0.1945 0.9788 0.0639
vn -0.8243 0.5658 0.0199
vn -0.9755 0.2188 0.0219
vn -0.9746 0.2138 0.0669
usemtl マテリアル
s 1
f 1/1/1 2/2/1 3/3/1
f 4/4/2 5/5/2 6/6/2
f 7/7/3 8/8/3 9/9/3
f 10/10/4 11/11/4 12/12/4
f 13/13/5 14/14/5 15/15/5
f 16/16/6 11/17/6 17/18/6
f 18/19/7 19/20/7 20/21/7
f 21/22/8 22/23/8 23/24/8
f 24/25/9 25/26/9 26/27/9
f 27/28/10 28/29/10 29/30/10
f 30/31/11 31/32/11 32/33/11
f 33/34/12 34/35/12 35/36/12
f 36/37/13 37/38/13 38/39/13
f 39/40/14 40/41/14 41/42/14
f 19/43/15 42/44/15 43/45/15
f 44/46/16 45/47/16 46/48/16
f 47/49/17 48/50/17 49/51/17
f 50/52/18 51/53/18 52/54/18
f 53/55/19 54/56/19 55/57/19
f 56/58/20 57/59/20 58/60/20
f 59/61/21 60/62/21 61/63/21
f 62/64/22 63/65/22 64/66/22
f 65/67/23 66/68/23 67/69/23
f 68/70/24 69/71/24 70/72/24
f 70/72/25 66/68/25 71/73/25
f 12/74/26 71/73/26 72/75/26
f 11/76/27 70/72/27 12/74/27
f 73/77/28 67/69/28 74/78/28
f 75/79/29 65/67/29 73/77/29
f 37/80/30 71/73/30 65/67/30
f 64/66/31 76/81/31 77/82/31
f 67/69/32 77/82/32 74/78/32
f 66/68/33 64/66/33 67/69/33
f 61/63/34 57/59/34 78/83/34
f 3/3/35 78/83/35 79/84/35
f 2/2/36 61/63/36 3/3/36
f 80/85/37 58/60/37 81/86/37
f 76/81/38 56/58/38 80/85/38
f 63/65/39 78/83/39 56/58/39
f 55/57/40 82/87/40 83/88/40
f 58/60/41 83/88/41 81/86/41
f 57/59/42 55/57/42 58/60/42
f 52/54/43 48/50/43 84/89/43
f 6/6/44 84/89/44 85/90/44
f 5/5/45 52/54/45 6/6/45
f 33/34/46 49/51/46 86/91/46
f 82/87/47 47/49/47 33/34/47
f 54/56/48 84/89/48 47/49/48
f 46/48/49 14/14/49 87/92/49
f 49/51/50 87/92/50 86/91/50
f 48/50/51 46/48/51 49/51/51
f 43/45/52 40/41/52 88/93/52
f 9/9/53 88/93/53 89/94/53
f 8/8/54 43/45/54 9/9/54
f 15/95/55 41/42/55 28/96/55
f 14/14/56 39/40/56 15/95/56
f 45/47/57 88/93/57 39/40/57
f 38/39/58 75/97/58 29/98/58
f 41/42/59 29/98/59 28/96/59
f 40/41/60 38/39/60 41/42/60
f 35/36/11 90/99/11 30/31/11
f 81/100/61 35/36/61 30/31/61
f 82/87/62 35/36/62 83/101/62
f 77/102/63 31/32/63 74/103/63
f 76/104/64 32/33/64 77/102/64
f 81/100/65 32/33/65 80/105/65
f 27/28/66 75/106/66 73/107/66
f 31/32/67 73/107/67 74/103/67
f 90/99/11 27/28/11 31/32/11
f 26/27/8 91/108/8 21/22/8
f 59/109/68 21/22/68 92/110/68
f 2/111/69 26/27/69 59/109/69
f 50/52/70 22/23/70 93/112/70
f 5/5/71 23/24/71 50/52/71
f 94/113/72 21/22/72 23/24/72
f 20/21/73 8/8/73 95/114/73
f 22/23/74 95/114/74 93/112/74
f 91/108/8 20/21/8 22/23/8
f 18/19/75 17/18/75 96/115/75
f 25/26/8 18/19/8 91/108/8
f 25/26/9 68/116/9 16/16/9
f 13/13/76 28/29/76 97/117/76
f 34/35/11 97/117/11 90/99/11
f 34/35/12 87/92/12 13/13/12
f 36/37/77 12/12/77 72/118/77
f 40/41/78 10/10/78 36/37/78
f 42/44/79 17/119/79 10/10/79
f 44/46/80 9/9/80 89/94/80
f 48/50/81 7/7/81 44/46/81
f 51/53/82 95/114/82 7/7/82
f 53/55/83 6/6/83 85/90/83
f 57/59/84 4/4/84 53/55/84
f 60/62/85 94/120/85 4/4/85
f 62/64/86 3/3/86 79/84/86
f 66/68/87 1/1/87 62/64/87
f 69/71/88 24/121/88 1/1/88
f 98/122/89 99/123/89 100/124/89
f 101/125/90 102/126/90 103/127/90
f 104/128/91 105/129/91 106/130/91
f 107/131/92 108/132/92 109/133/92
f 110/134/93 111/135/93 112/136/93
f 113/137/94 114/138/94 115/139/94
f 116/140/95 117/141/95 118/142/95
f 119/143/8 120/144/8 121/145/8
f 122/146/96 123/147/97 124/148/96
f 125/149/98 126/150/98 127/151/98
f 128/152/11 129/153/11 130/154/11
f 131/155/99 132/156/99 133/157/99
f 134/158/100 135/159/100 136/160/100
f 137/161/101 138/162/101 139/163/101
f 118/164/102 140/165/102 141/166/102
f 142/167/103 143/168/103 144/169/103
f 145/170/104 146/171/104 147/172/104
f 148/173/105 149/174/105 150/175/105
f 151/176/106 152/177/106 153/178/106
f 154/179/107 155/180/107 156/181/107
f 157/182/108 158/183/108 159/184/108
f 160/185/109 161/186/109 162/187/109
f 163/188/110 164/189/110 165/190/110
f 113/191/111 166/192/111 167/193/111
f 167/193/112 164/189/112 168/194/112
f 109/195/113 168/194/113 169/196/113
f 108/197/114 167/193/114 109/195/114
f 170/198/115 165/190/115 171/199/115
f 172/200/116 163/188/116 170/198/116
f 135/201/117 168/194/117 163/188/117
f 162/187/118 173/202/118 174/203/118
f 165/190/119 174/203/119 171/199/119
f 164/189/120 162/187/120 165/190/120
f 159/184/121 155/180/121 175/204/121
f 100/124/122 175/204/122 176/205/122
f 99/123/123 159/184/123 100/124/123
f 177/206/124 156/181/124 178/207/124
f 173/202/125 154/179/125 177/206/125
f 161/186/126 175/204/126 154/179/126
f 153/178/127 179/208/127 180/209/127
f 156/181/128 180/209/128 178/207/128
f 155/180/129 153/178/129 156/181/129
f 150/175/130 146/171/130 181/210/130
f 103/127/131 181/210/131 182/211/131
f 102/126/132 150/175/132 103/127/132
f 183/212/133 147/172/133 132/156/133
f 179/208/134 145/170/134 183/212/134
f 152/177/135 181/210/135 145/170/135
f 144/169/136 184/213/136 110/134/136
f 147/172/137 110/134/137 132/156/137
f 146/171/138 144/169/138 147/172/138
f 141/166/139 138/162/139 185/214/139
f 106/130/140 185/214/140 186/215/140
f 105/129/141 141/166/141 106/130/141
f 111/216/142 139/163/142 126/217/142
f 184/213/143 137/161/143 111/216/143
f 143/168/144 185/214/144 137/161/144
f 136/160/145 172/218/145 127/219/145
f 139/163/146 127/219/146 126/217/146
f 138/162/147 136/160/147 139/163/147
f 131/155/11 187/220/11 128/152/11
f 178/221/148 131/155/148 128/152/148
f 180/222/149 183/212/149 131/155/149
f 130/154/150 171/223/150 174/224/150
f 177/225/151 174/224/151 173/226/151
f 178/221/152 130/154/152 177/225/152
f 170/227/153 127/151/153 172/228/153
f 171/223/154 125/149/154 170/227/154
f 187/220/11 125/149/11 129/153/11
f 122/146/8 188/229/8 119/143/8
f 189/230/155 122/146/155 119/143/155
f 157/231/156 190/232/156 122/146/156
f 121/145/157 191/233/157 148/173/157
f 192/234/158 148/173/158 102/126/158
f 189/230/159 121/145/159 192/234/159
f 193/235/160 118/142/160 105/129/160
f 191/233/161 116/140/161 193/235/161
f 188/229/8 116/140/8 120/144/8
f 115/139/162 117/141/162 194/236/162
f 124/148/8 194/236/8 188/229/8
f 123/147/97 115/139/97 124/148/96
f 112/136/163 126/150/163 195/237/163
f 133/157/11 195/237/11 187/220/11
f 132/156/99 112/136/99 133/157/99
f 134/158/164 109/133/164 169/238/164
f 138/162/165 107/131/165 134/158/165
f 140/165/166 114/239/166 107/131/166
f 142/167/167 106/130/167 186/215/167
f 146/171/168 104/128/168 142/167/168
f 149/174/169 193/235/169 104/128/169
f 151/176/170 103/127/170 182/211/170
f 155/180/171 101/125/171 151/176/171
f 158/183/172 192/240/172 101/125/172
f 160/185/173 100/124/173 176/205/173
f 164/189/174 98/122/174 160/185/174
f 166/192/175 190/241/175 98/122/175
f 1/1/176 24/121/176 2/2/176
f 4/4/177 94/120/177 5/5/177
f 7/7/178 95/114/178 8/8/178
f 10/10/179 17/119/179 11/11/179
f 13/13/180 87/92/180 14/14/180
f 16/16/181 68/116/181 11/17/181
f 18/19/182 96/115/182 19/20/182
f 21/22/8 91/108/8 22/23/8
f 24/25/183 196/242/183 25/26/183
f 27/28/76 97/117/76 28/29/76
f 30/31/11 90/99/11 31/32/11
f 33/34/184 86/91/184 34/35/184
f 36/37/185 72/118/185 37/38/185
f 39/40/186 88/93/186 40/41/186
f 19/43/187 96/243/187 42/44/187
f 44/46/188 89/94/188 45/47/188
f 47/49/189 84/89/189 48/50/189
f 50/52/190 93/112/190 51/53/190
f 53/55/191 85/90/191 54/56/191
f 56/58/192 78/83/192 57/59/192
f 59/61/193 92/244/193 60/62/193
f 62/64/194 79/84/194 63/65/194
f 65/67/195 71/73/195 66/68/195
f 68/70/196 196/245/196 69/71/196
f 70/72/197 69/71/197 66/68/197
f 12/74/198 70/72/198 71/73/198
f 11/76/199 68/70/199 70/72/199
f 73/77/200 65/67/200 67/69/200
f 75/79/201 37/80/201 65/67/201
f 37/80/202 72/75/202 71/73/202
f 64/66/203 63/65/203 76/81/203
f 67/69/204 64/66/204 77/82/204
f 66/68/205 62/64/205 64/66/205
f 61/63/206 60/62/206 57/59/206
f 3/3/207 61/63/207 78/83/207
f 2/2/208 59/61/208 61/63/208
f 80/85/209 56/58/209 58/60/209
f 76/81/210 63/65/210 56/58/210
f 63/65/211 79/84/211 78/83/211
f 55/57/212 54/56/212 82/87/212
f 58/60/213 55/57/213 83/88/213
f 57/59/214 53/55/214 55/57/214
f 52/54/215 51/53/215 48/50/215
f 6/6/216 52/54/216 84/89/216
f 5/5/217 50/52/217 52/54/217
f 33/34/218 47/49/218 49/51/218
f 82/87/219 54/56/219 47/49/219
f 54/56/220 85/90/220 84/89/220
f 46/48/221 45/47/221 14/14/221
f 49/51/222 46/48/222 87/92/222
f 48/50/223 44/46/223 46/48/223
f 43/45/224 42/44/224 40/41/224
f 9/9/225 43/45/225 88/93/225
f 8/8/226 19/43/226 43/45/226
f 15/95/227 39/40/227 41/42/227
f 14/14/228 45/47/228 39/40/228
f 45/47/229 89/94/229 88/93/229
f 38/39/230 37/38/230 75/97/230
f 41/42/231 38/39/231 29/98/231
f 40/41/232 36/37/232 38/39/232
f 35/36/11 34/35/11 90/99/11
f 81/100/233 83/101/233 35/36/233
f 82/87/234 33/34/234 35/36/234
f 77/102/235 32/33/235 31/32/235
f 76/104/236 80/105/236 32/33/236
f 81/100/61 30/31/61 32/33/61
f 27/28/237 29/30/237 75/106/237
f 31/32/235 27/28/235 73/107/235
f 90/99/11 97/117/11 27/28/11
f 26/27/8 25/26/8 91/108/8
f 59/109/72 26/27/72 21/22/72
f 2/111/238 24/25/238 26/27/238
f 50/52/239 23/24/239 22/23/239
f 5/5/240 94/113/240 23/24/240
f 94/113/241 92/110/241 21/22/241
f 20/21/242 19/20/242 8/8/242
f 22/23/239 20/21/239 95/114/239
f 91/108/8 18/19/8 20/21/8
f 18/19/7 16/16/7 17/18/7
f 25/26/8 16/16/8 18/19/8
f 25/26/243 196/242/243 68/116/243
f 13/13/244 15/15/244 28/29/244
f 34/35/11 13/13/11 97/117/11
f 34/35/245 86/91/245 87/92/245
f 36/37/246 10/10/246 12/12/246
f 40/41/247 42/44/247 10/10/247
f 42/44/248 96/243/248 17/119/248
f 44/46/249 7/7/249 9/9/249
f 48/50/250 51/53/250 7/7/250
f 51/53/251 93/112/251 95/114/251
f 53/55/252 4/4/252 6/6/252
f 57/59/253 60/62/253 4/4/253
f 60/62/254 92/244/254 94/120/254
f 62/64/255 1/1/255 3/3/255
f 66/68/256 69/71/256 1/1/256
f 69/71/257 196/245/257 24/121/257
f 98/122/258 190/241/258 99/123/258
f 101/125/259 192/240/259 102/126/259
f 104/128/260 193/235/260 105/129/260
f 107/131/261 114/239/261 108/132/261
f 110/134/262 184/213/262 111/135/262
f 113/137/263 108/246/263 114/138/263
f 116/140/162 194/236/162 117/141/162
f 119/143/8 188/229/8 120/144/8
f 122/146/264 190/232/264 123/147/264
f 125/149/163 195/237/163 126/150/163
f 128/152/11 187/220/11 129/153/11
f 131/155/265 183/212/265 132/156/265
f 134/158/266 169/238/266 135/159/266
f 137/161/267 185/214/267 138/162/267
f 118/164/268 117/247/268 140/165/268
f 142/167/269 186/215/269 143/168/269
f 145/170/270 181/210/270 146/171/270
f 148/173/271 191/233/271 149/174/271
f 151/176/272 182/211/272 152/177/272
f 154/179/273 175/204/273 155/180/273
f 157/182/274 189/248/274 158/183/274
f 160/185/275 176/205/275 161/186/275
f 163/188/276 168/194/276 164/189/276
f 113/191/277 123/249/277 166/192/277
f 167/193/278 166/192/278 164/189/278
f 109/195/279 167/193/279 168/194/279
f 108/197/280 113/191/280 167/193/280
f 170/198/281 163/188/281 165/190/281
f 172/200/282 135/201/282 163/188/282
f 135/201/283 169/196/283 168/194/283
f 162/187/284 161/186/284 173/202/284
f 165/190/285 162/187/285 174/203/285
f 164/189/286 160/185/286 162/187/286
f 159/184/287 158/183/287 155/180/287
f 100/124/288 159/184/288 175/204/288
f 99/123/289 157/182/289 159/184/289
f 177/206/290 154/179/290 156/181/290
f 173/202/291 161/186/291 154/179/291
f 161/186/292 176/205/292 175/204/292
f 153/178/293 152/177/293 179/208/293
f 156/181/294 153/178/294 180/209/294
f 155/180/295 151/176/295 153/178/295
f 150/175/296 149/174/296 146/171/296
f 103/127/297 150/175/297 181/210/297
f 102/126/298 148/173/298 150/175/298
f 183/212/299 145/170/299 147/172/299
f 179/208/300 152/177/300 145/170/300
f 152/177/301 182/211/301 181/210/301
f 144/169/302 143/168/302 184/213/302
f 147/172/303 144/169/303 110/134/303
f 146/171/304 142/167/304 144/169/304
f 141/166/305 140/165/305 138/162/305
f 106/130/306 141/166/306 185/214/306
f 105/129/307 118/164/307 141/166/307
f 111/216/308 137/161/308 139/163/308
f 184/213/309 143/168/309 137/161/309
f 143/168/310 186/215/310 185/214/310
f 136/160/311 135/159/311 172/218/311
f 139/163/312 136/160/312 127/219/312
f 138/162/313 134/158/313 136/160/313
f 131/155/11 133/157/11 187/220/11
f 178/221/314 180/222/314 131/155/314
f 180/222/315 179/208/315 183/212/315
f 130/154/316 129/153/316 171/223/316
f 177/225/317 130/154/317 174/224/317
f 178/221/148 128/152/148 130/154/148
f 170/227/318 125/149/318 127/151/318
f 171/223/316 129/153/316 125/149/316
f 187/220/11 195/237/11 125/149/11
f 122/146/8 124/148/8 188/229/8
f 189/230/319 157/231/319 122/146/319
f 157/231/320 99/250/320 190/232/320
f 121/145/321 120/144/321 191/233/322
f 192/234/323 121/145/323 148/173/323
f 189/230/155 119/143/155 121/145/155
f 193/235/324 116/140/324 118/142/324
f 191/233/322 120/144/321 116/140/322
f 188/229/8 194/236/8 116/140/8
f 115/139/325 114/138/325 117/141/325
f 124/148/8 115/139/8 194/236/8
f 123/147/326 113/137/326 115/139/326
f 112/136/327 111/135/327 126/150/327
f 133/157/11 112/136/11 195/237/11
f 132/156/328 110/134/328 112/136/328
f 134/158/329 107/131/329 109/133/329
f 138/162/330 140/165/330 107/131/330
f 140/165/331 117/247/331 114/239/331
f 142/167/332 104/128/332 106/130/332
f 146/171/333 149/174/333 104/128/333
f 149/174/334 191/233/334 193/235/334
f 151/176/335 101/125/335 103/127/335
f 155/180/336 158/183/336 101/125/336
f 158/183/337 189/248/337 192/240/337
f 160/185/338 98/122/338 100/124/338
f 164/189/339 166/192/339 98/122/339
f 166/192/340 123/249/340 190/241/340
