# Blender v3.6.23 OBJ File: ''
# www.blender.org
mtllib deathParticle.mtl
o 立方体
v -0.207666 -0.129071 0.205566
v -0.037008 0.317268 -0.003644
v -0.297876 0.071422 -0.090611
v 0.053202 0.116775 0.292532
v 0.207666 0.129071 -0.205566
v 0.297876 -0.071422 0.090611
v -0.053202 -0.116775 -0.292532
v 0.037008 -0.317268 0.003644
vt 0.625000 0.000000
vt 0.375000 0.250000
vt 0.375000 0.000000
vt 0.625000 0.250000
vt 0.375000 0.500000
vt 0.625000 0.500000
vt 0.375000 0.750000
vt 0.625000 0.750000
vt 0.375000 1.000000
vt 0.125000 0.750000
vt 0.125000 0.500000
vt 0.875000 0.500000
vt 0.625000 1.000000
vt 0.875000 0.750000
vn -0.6633 0.5102 0.5474
vn 0.7072 0.6665 0.2358
vn 0.6633 -0.5102 -0.5474
vn -0.7072 -0.6665 -0.2358
vn -0.2446 0.5436 -0.8030
vn 0.2446 -0.5436 0.8030
usemtl マテリアル
s 1
f 1/1/1 2/2/1 3/3/1
f 4/4/2 5/5/2 2/2/2
f 6/6/3 7/7/3 5/5/3
f 8/8/4 3/9/4 7/7/4
f 5/5/5 3/10/5 2/11/5
f 4/12/6 8/8/6 6/6/6
f 1/1/1 4/4/1 2/2/1
f 4/4/2 6/6/2 5/5/2
f 6/6/3 8/8/3 7/7/3
f 8/8/4 1/13/4 3/9/4
f 5/5/5 7/7/5 3/10/5
f 4/12/6 1/14/6 8/8/6
