# Blender v3.6.23 OBJ File: ''
# www.blender.org
mtllib goal.mtl
o テキスト
v -0.439973 1.327694 0.521026
v -0.396304 1.327694 0.521026
v -0.396304 1.071032 0.217175
v -0.577217 1.071032 0.217175
v -0.577217 1.104150 0.256381
v -0.439973 1.104150 0.256381
v -0.227423 1.329200 0.522809
v -0.196676 1.329200 0.522809
v -0.066116 1.071032 0.217175
v -0.110676 1.071032 0.217175
v -0.148997 1.146676 0.306726
v -0.278221 1.146676 0.306726
v -0.318770 1.071032 0.217175
v -0.363330 1.071032 0.217175
v -0.211381 1.272749 0.455979
v -0.260397 1.179794 0.345933
v -0.165930 1.179794 0.345933
v 0.280560 1.199363 0.369101
v 0.279266 1.182146 0.348718
v 0.275446 1.165432 0.328931
v 0.269190 1.149410 0.309963
v 0.260590 1.134271 0.292040
v 0.249738 1.120203 0.275386
v 0.236724 1.107396 0.260224
v 0.221640 1.096039 0.246779
v 0.204577 1.086323 0.235276
v 0.185626 1.078435 0.225939
v 0.164879 1.072567 0.218992
v 0.142427 1.068907 0.214659
v 0.118362 1.067645 0.213165
v 0.093503 1.068914 0.214667
v 0.070441 1.072593 0.219023
v 0.049245 1.078488 0.226002
v 0.029985 1.086406 0.235375
v 0.012729 1.096154 0.246915
v -0.002451 1.107537 0.260391
v -0.015487 1.120363 0.275575
v -0.026309 1.134438 0.292238
v -0.034848 1.149569 0.310151
v -0.041033 1.165563 0.329085
v -0.044795 1.182225 0.348811
v -0.046064 1.199363 0.369101
v -0.044761 1.216976 0.389951
v -0.040913 1.233948 0.410044
v -0.034611 1.250110 0.429177
v -0.025946 1.265292 0.447151
v -0.015010 1.279324 0.463763
v -0.001894 1.292036 0.478812
v 0.013311 1.303259 0.492098
v 0.030513 1.312822 0.503420
v 0.049621 1.320556 0.512575
v 0.070545 1.326290 0.519364
v 0.093191 1.329855 0.523585
v 0.117471 1.331081 0.525036
v 0.141367 1.329848 0.523576
v 0.163745 1.326264 0.519333
v 0.184498 1.320503 0.512513
v 0.203521 1.312738 0.503321
v 0.220705 1.303145 0.491963
v 0.235944 1.291895 0.478645
v 0.249132 1.279164 0.463573
v 0.260161 1.265125 0.446953
v 0.268925 1.249951 0.428989
v 0.275318 1.233817 0.409889
v 0.279231 1.216897 0.389858
v 0.235554 1.199363 0.369101
v 0.234524 1.213147 0.385419
v 0.231511 1.226212 0.400886
v 0.226628 1.238467 0.415394
v 0.219991 1.249820 0.428835
v 0.211714 1.260180 0.441099
v 0.201911 1.269456 0.452081
v 0.190698 1.277556 0.461669
v 0.178187 1.284388 0.469757
v 0.164495 1.289861 0.476237
v 0.149735 1.293883 0.480999
v 0.134022 1.296364 0.483935
v 0.117471 1.297211 0.484938
v 0.100817 1.296364 0.483935
v 0.085018 1.293883 0.480999
v 0.070188 1.289861 0.476237
v 0.056440 1.284388 0.469757
v 0.043886 1.277556 0.461669
v 0.032640 1.269456 0.452081
v 0.022814 1.260180 0.441099
v 0.014521 1.249820 0.428835
v 0.007874 1.238467 0.415394
v 0.002987 1.226212 0.400886
v -0.000028 1.213147 0.385419
v -0.001059 1.199363 0.369101
v -0.000028 1.185659 0.352876
v 0.002987 1.172645 0.337470
v 0.007874 1.160418 0.322995
v 0.014521 1.149073 0.309564
v 0.022814 1.138706 0.297291
v 0.032640 1.129412 0.286288
v 0.043886 1.121285 0.276667
v 0.056440 1.114422 0.268543
v 0.070188 1.108919 0.262027
v 0.085018 1.104869 0.257233
v 0.100817 1.102370 0.254274
v 0.117471 1.101516 0.253263
v 0.134022 1.102370 0.254274
v 0.149735 1.104869 0.257233
v 0.164495 1.108919 0.262027
v 0.178187 1.114422 0.268543
v 0.190698 1.121285 0.276667
v 0.201911 1.129412 0.286288
v 0.211714 1.138706 0.297291
v 0.219991 1.149073 0.309564
v 0.226628 1.160418 0.322995
v 0.231511 1.172645 0.337470
v 0.234524 1.185659 0.352876
v 0.330467 1.197482 0.366873
v 0.432509 1.197482 0.366873
v 0.432509 1.164364 0.327666
v 0.374135 1.164364 0.327666
v 0.374135 1.111677 0.265292
v 0.379381 1.110291 0.263651
v 0.384652 1.108964 0.262080
v 0.389954 1.107708 0.260593
v 0.395293 1.106533 0.259203
v 0.400675 1.105453 0.257924
v 0.406107 1.104479 0.256771
v 0.411594 1.103623 0.255757
v 0.417144 1.102895 0.254896
v 0.422761 1.102309 0.254202
v 0.428453 1.101876 0.253690
v 0.434225 1.101608 0.253372
v 0.440084 1.101516 0.253262
v 0.457668 1.102341 0.254240
v 0.474259 1.104763 0.257107
v 0.489754 1.108701 0.261769
v 0.504052 1.114074 0.268130
v 0.517050 1.120801 0.276093
v 0.528646 1.128800 0.285563
v 0.538739 1.137991 0.296444
v 0.547225 1.148293 0.308640
v 0.554004 1.159624 0.322055
v 0.558972 1.171905 0.336593
v 0.562028 1.185053 0.352158
v 0.563069 1.198987 0.368655
v 0.562023 1.212620 0.384795
v 0.558968 1.225602 0.400164
v 0.554032 1.237832 0.414642
v 0.547341 1.249207 0.428108
v 0.539023 1.259626 0.440443
v 0.529203 1.268986 0.451524
v 0.518010 1.277185 0.461231
v 0.505570 1.284123 0.469444
v 0.492010 1.289696 0.476042
v 0.477456 1.293803 0.480904
v 0.462036 1.296342 0.483910
v 0.445877 1.297211 0.484938
v 0.436734 1.297031 0.484725
v 0.427578 1.296493 0.484089
v 0.418417 1.295600 0.483031
v 0.409255 1.294354 0.481556
v 0.400100 1.292757 0.479666
v 0.390957 1.290813 0.477364
v 0.381832 1.288524 0.474655
v 0.372732 1.285893 0.471539
v 0.363664 1.282922 0.468022
v 0.354632 1.279614 0.464106
v 0.345644 1.275971 0.459793
v 0.336705 1.271996 0.455088
v 0.336705 1.309254 0.499195
v 0.348171 1.313241 0.503915
v 0.358805 1.316751 0.508071
v 0.368725 1.319809 0.511691
v 0.378047 1.322440 0.514805
v 0.386885 1.324668 0.517443
v 0.395357 1.326518 0.519634
v 0.403578 1.328016 0.521407
v 0.411664 1.329186 0.522792
v 0.419733 1.330052 0.523818
v 0.427898 1.330641 0.524514
v 0.436277 1.330975 0.524911
v 0.444985 1.331082 0.525036
v 0.467664 1.329905 0.523643
v 0.489248 1.326466 0.519572
v 0.509569 1.320903 0.512986
v 0.528461 1.313352 0.504047
v 0.545756 1.303951 0.492917
v 0.561287 1.292836 0.479759
v 0.574887 1.280146 0.464736
v 0.586389 1.266017 0.448009
v 0.595626 1.250586 0.429741
v 0.602430 1.233992 0.410095
v 0.606636 1.216370 0.389234
v 0.608074 1.197858 0.367318
v 0.606670 1.179485 0.345567
v 0.602560 1.162078 0.324960
v 0.595897 1.145759 0.305640
v 0.586834 1.130647 0.287750
v 0.575525 1.116863 0.271431
v 0.562122 1.104526 0.256827
v 0.546779 1.093758 0.244079
v 0.529649 1.084678 0.233329
v 0.510885 1.077406 0.224721
v 0.490641 1.072064 0.218396
v 0.469069 1.068770 0.214496
v 0.446322 1.067645 0.213165
v 0.435924 1.067772 0.213315
v 0.425858 1.068161 0.213775
v 0.416063 1.068821 0.214557
v 0.406482 1.069764 0.215673
v 0.397056 1.070999 0.217135
v 0.387726 1.072538 0.218957
v 0.378433 1.074390 0.221149
v 0.369118 1.076566 0.223725
v 0.359723 1.079076 0.226698
v 0.350188 1.081932 0.230078
v 0.340456 1.085143 0.233880
v 0.330467 1.088720 0.238115
v -0.439973 1.553374 0.330396
v -0.396304 1.553374 0.330396
v -0.396304 1.296712 0.026544
v -0.577217 1.296712 0.026544
v -0.577217 1.329829 0.065751
v -0.439973 1.329829 0.065751
v -0.227423 1.554879 0.332178
v -0.196676 1.554879 0.332178
v -0.066116 1.296712 0.026544
v -0.110676 1.296712 0.026544
v -0.148997 1.372355 0.116096
v -0.278221 1.372355 0.116096
v -0.318770 1.296712 0.026544
v -0.363330 1.296712 0.026544
v -0.211381 1.498428 0.265349
v -0.260397 1.405473 0.155303
v -0.165930 1.405473 0.155303
v 0.280560 1.425043 0.178470
v 0.279266 1.407825 0.158087
v 0.275446 1.391111 0.138300
v 0.269190 1.375090 0.119333
v 0.260590 1.359950 0.101410
v 0.249738 1.345882 0.084755
v 0.236724 1.333075 0.069594
v 0.221640 1.321719 0.056149
v 0.204577 1.312002 0.044646
v 0.185626 1.304115 0.035309
v 0.164879 1.298247 0.028361
v 0.142427 1.294587 0.024029
v 0.118362 1.293325 0.022535
v 0.093503 1.294594 0.024037
v 0.070441 1.298273 0.028392
v 0.049245 1.304168 0.035371
v 0.029985 1.312086 0.044745
v 0.012729 1.321833 0.056284
v -0.002451 1.333216 0.069761
v -0.015487 1.346042 0.084945
v -0.026309 1.360117 0.101608
v -0.034848 1.375248 0.119521
v -0.041033 1.391242 0.138455
v -0.044795 1.407904 0.158181
v -0.046064 1.425043 0.178470
v -0.044761 1.442655 0.199321
v -0.040913 1.459627 0.219414
v -0.034611 1.475789 0.238547
v -0.025946 1.490971 0.256520
v -0.015010 1.505003 0.273132
v -0.001894 1.517716 0.288182
v 0.013311 1.528938 0.301468
v 0.030513 1.538502 0.312789
v 0.049621 1.546235 0.321945
v 0.070544 1.551970 0.328734
v 0.093191 1.555535 0.332954
v 0.117471 1.556761 0.334406
v 0.141367 1.555527 0.332946
v 0.163745 1.551943 0.328703
v 0.184498 1.546182 0.321882
v 0.203521 1.538418 0.312690
v 0.220705 1.528824 0.301333
v 0.235944 1.517575 0.288015
v 0.249132 1.504843 0.272943
v 0.260161 1.490804 0.256322
v 0.268925 1.475631 0.238359
v 0.275318 1.459497 0.219259
v 0.279231 1.442576 0.199227
v 0.235554 1.425043 0.178470
v 0.234524 1.438826 0.194788
v 0.231511 1.451892 0.210255
v 0.226628 1.464146 0.224764
v 0.219991 1.475500 0.238204
v 0.211714 1.485860 0.250469
v 0.201911 1.495136 0.261450
v 0.190698 1.503235 0.271039
v 0.178187 1.510067 0.279127
v 0.164495 1.515540 0.285606
v 0.149735 1.519563 0.290368
v 0.134022 1.522043 0.293305
v 0.117471 1.522890 0.294308
v 0.100817 1.522043 0.293305
v 0.085018 1.519563 0.290368
v 0.070188 1.515540 0.285606
v 0.056440 1.510067 0.279127
v 0.043886 1.503235 0.271039
v 0.032640 1.495136 0.261450
v 0.022814 1.485860 0.250469
v 0.014521 1.475500 0.238204
v 0.007874 1.464146 0.224764
v 0.002987 1.451892 0.210255
v -0.000028 1.438826 0.194788
v -0.001059 1.425043 0.178470
v -0.000028 1.411338 0.162246
v 0.002987 1.398324 0.146840
v 0.007874 1.386098 0.132365
v 0.014521 1.374753 0.118934
v 0.022814 1.364385 0.106661
v 0.032640 1.355091 0.095657
v 0.043886 1.346965 0.086037
v 0.056440 1.340102 0.077912
v 0.070188 1.334598 0.071397
v 0.085018 1.330549 0.066603
v 0.100817 1.328049 0.063644
v 0.117471 1.327195 0.062632
v 0.134022 1.328049 0.063644
v 0.149735 1.330549 0.066603
v 0.164495 1.334598 0.071397
v 0.178187 1.340102 0.077912
v 0.190698 1.346965 0.086037
v 0.201911 1.355091 0.095657
v 0.211714 1.364385 0.106661
v 0.219991 1.374753 0.118934
v 0.226628 1.386098 0.132365
v 0.231511 1.398324 0.146840
v 0.234524 1.411338 0.162246
v 0.330467 1.423161 0.176243
v 0.432509 1.423161 0.176243
v 0.432509 1.390043 0.137036
v 0.374135 1.390043 0.137036
v 0.374135 1.337356 0.074662
v 0.379381 1.335970 0.073021
v 0.384652 1.334643 0.071450
v 0.389954 1.333387 0.069963
v 0.395293 1.332213 0.068573
v 0.400675 1.331133 0.067294
v 0.406107 1.330159 0.066141
v 0.411594 1.329302 0.065127
v 0.417144 1.328575 0.064266
v 0.422761 1.327989 0.063572
v 0.428453 1.327556 0.063059
v 0.434225 1.327287 0.062741
v 0.440084 1.327195 0.062632
v 0.457668 1.328020 0.063609
v 0.474259 1.330442 0.066477
v 0.489754 1.334381 0.071139
v 0.504052 1.339754 0.077500
v 0.517050 1.346480 0.085463
v 0.528646 1.354479 0.094933
v 0.538739 1.363671 0.105814
v 0.547225 1.373972 0.118010
v 0.554004 1.385304 0.131425
v 0.558972 1.397584 0.145963
v 0.562028 1.410732 0.161528
v 0.563069 1.424666 0.178025
v 0.562023 1.438299 0.194164
v 0.558968 1.451282 0.209533
v 0.554032 1.463511 0.224012
v 0.547341 1.474887 0.237478
v 0.539023 1.485305 0.249812
v 0.529203 1.494665 0.260893
v 0.518010 1.502865 0.270601
v 0.505570 1.509802 0.278813
v 0.492010 1.515375 0.285411
v 0.477456 1.519483 0.290274
v 0.462036 1.522022 0.293279
v 0.445877 1.522890 0.294308
v 0.436734 1.522710 0.294095
v 0.427578 1.522173 0.293458
v 0.418417 1.521279 0.292401
v 0.409255 1.520033 0.290925
v 0.400100 1.518437 0.289035
v 0.390957 1.516493 0.286734
v 0.381832 1.514204 0.284024
v 0.372732 1.511572 0.280909
v 0.363664 1.508601 0.277392
v 0.354632 1.505293 0.273475
v 0.345644 1.501650 0.269163
v 0.336705 1.497676 0.264458
v 0.336705 1.534933 0.308565
v 0.348171 1.538920 0.313285
v 0.358805 1.542430 0.317441
v 0.368725 1.545488 0.321061
v 0.378047 1.548119 0.324175
v 0.386885 1.550347 0.326813
v 0.395357 1.552198 0.329004
v 0.403578 1.553696 0.330777
v 0.411664 1.554865 0.332162
v 0.419733 1.555732 0.333188
v 0.427898 1.556320 0.333884
v 0.436277 1.556655 0.334280
v 0.444985 1.556761 0.334406
v 0.467664 1.555584 0.333013
v 0.489248 1.552146 0.328942
v 0.509569 1.546582 0.322356
v 0.528461 1.539031 0.313416
v 0.545756 1.529630 0.302287
v 0.561287 1.518515 0.289129
v 0.574887 1.505825 0.274105
v 0.586389 1.491696 0.257379
v 0.595626 1.476266 0.239111
v 0.602430 1.459671 0.219465
v 0.606636 1.442049 0.198603
v 0.608074 1.423537 0.176688
v 0.606670 1.405164 0.154936
v 0.602560 1.387757 0.134330
v 0.595897 1.371438 0.115010
v 0.586834 1.356326 0.097120
v 0.575525 1.342542 0.080801
v 0.562122 1.330206 0.066196
v 0.546779 1.319437 0.053448
v 0.529649 1.310357 0.042699
v 0.510885 1.303086 0.034090
v 0.490641 1.297743 0.027765
v 0.469069 1.294449 0.023866
v 0.446322 1.293325 0.022534
v 0.435924 1.293452 0.022685
v 0.425858 1.293840 0.023145
v 0.416063 1.294501 0.023927
v 0.406482 1.295443 0.025043
v 0.397056 1.296679 0.026505
v 0.387726 1.298217 0.028326
v 0.378433 1.300069 0.030519
v 0.369118 1.302245 0.033095
v 0.359723 1.304756 0.036067
v 0.350188 1.307611 0.039448
v 0.340456 1.310822 0.043250
v 0.330467 1.314399 0.047484
v 0.286478 -0.499133 0.338203
v -0.264995 -0.499133 0.338203
v -0.264995 -0.445000 0.338203
v 0.286478 -0.445000 0.338203
v -0.264995 -0.499133 -0.383570
v 0.286478 -0.499133 -0.383570
v 0.286478 -0.445000 -0.383570
v -0.264995 -0.445000 -0.383570
v 0.217544 -0.445000 0.247982
v -0.196060 -0.445000 0.247982
v -0.030619 0.763970 0.031450
v 0.052102 0.763970 0.031450
v -0.196061 -0.445000 -0.293348
v -0.030619 0.763970 -0.076816
v 0.217544 -0.445000 -0.293348
v 0.052102 0.763970 -0.076816
vt 0.406088 0.026384
vt 0.406088 0.013224
vt 0.406088 0.000064
vt 0.406088 0.065866
vt 0.406088 0.052705
vt 0.406088 0.039545
vt 0.406088 0.145083
vt 0.406088 0.138502
vt 0.406088 0.131922
vt 0.406088 0.184564
vt 0.406088 0.177984
vt 0.406088 0.197724
vt 0.406088 0.191144
vt 0.406088 0.158243
vt 0.406088 0.164823
vt 0.406088 0.151663
vt 0.406088 0.171403
vt 0.406088 0.223480
vt 0.406088 0.222787
vt 0.406088 0.222094
vt 0.406088 0.221402
vt 0.406088 0.224172
vt 0.406088 0.220709
vt 0.406088 0.224865
vt 0.406088 0.220016
vt 0.406088 0.225558
vt 0.406088 0.219324
vt 0.406088 0.226250
vt 0.406088 0.218631
vt 0.406088 0.226943
vt 0.406088 0.239411
vt 0.406088 0.238718
vt 0.406088 0.240103
vt 0.406088 0.240796
vt 0.406088 0.238025
vt 0.406088 0.241488
vt 0.406088 0.237333
vt 0.406088 0.217938
vt 0.406088 0.227635
vt 0.406088 0.242181
vt 0.406088 0.236640
vt 0.406088 0.242874
vt 0.406088 0.235947
vt 0.406088 0.217246
vt 0.406088 0.228328
vt 0.406088 0.243566
vt 0.406088 0.235255
vt 0.406088 0.244259
vt 0.406088 0.234562
vt 0.406088 0.216553
vt 0.406088 0.229021
vt 0.406088 0.244952
vt 0.406088 0.233869
vt 0.406088 0.215860
vt 0.406088 0.229713
vt 0.406088 0.245644
vt 0.406088 0.233177
vt 0.406088 0.246337
vt 0.406088 0.232484
vt 0.406088 0.215168
vt 0.406088 0.230406
vt 0.406088 0.247030
vt 0.406088 0.231791
vt 0.406088 0.214475
vt 0.406088 0.197851
vt 0.406088 0.247722
vt 0.406088 0.231099
vt 0.406088 0.198544
vt 0.406088 0.263653
vt 0.406088 0.248415
vt 0.406088 0.213782
vt 0.406088 0.262961
vt 0.406088 0.249108
vt 0.406088 0.213090
vt 0.406088 0.199237
vt 0.406088 0.262268
vt 0.406088 0.249800
vt 0.406088 0.212397
vt 0.406088 0.199929
vt 0.406088 0.250493
vt 0.406088 0.261575
vt 0.406088 0.211704
vt 0.406088 0.200622
vt 0.406088 0.251186
vt 0.406088 0.260883
vt 0.406088 0.251878
vt 0.406088 0.260190
vt 0.406088 0.211012
vt 0.406088 0.201315
vt 0.406088 0.252571
vt 0.406088 0.259497
vt 0.406088 0.253264
vt 0.406088 0.258805
vt 0.406088 0.210319
vt 0.406088 0.202007
vt 0.406088 0.253956
vt 0.406088 0.258112
vt 0.406088 0.254649
vt 0.406088 0.257419
vt 0.406088 0.209627
vt 0.406088 0.202700
vt 0.406088 0.255342
vt 0.406088 0.256727
vt 0.406088 0.256034
vt 0.406088 0.208934
vt 0.406088 0.203393
vt 0.406088 0.208241
vt 0.406088 0.204085
vt 0.406088 0.207549
vt 0.406088 0.204778
vt 0.406088 0.206856
vt 0.406088 0.205471
vt 0.406088 0.206163
vt 0.406088 0.108992
vt 0.406088 0.108341
vt 0.406088 0.107689
vt 0.406088 0.107038
vt 0.406088 0.106386
vt 0.406088 0.105735
vt 0.406088 0.109644
vt 0.406088 0.105083
vt 0.406088 0.104432
vt 0.406088 0.103780
vt 0.406088 0.110295
vt 0.406088 0.103129
vt 0.406088 0.102477
vt 0.406088 0.110947
vt 0.406088 0.101826
vt 0.406088 0.101174
vt 0.406088 0.111598
vt 0.406088 0.100523
vt 0.406088 0.093356
vt 0.406088 0.094008
vt 0.406088 0.094659
vt 0.406088 0.095311
vt 0.406088 0.095962
vt 0.406088 0.096614
vt 0.406088 0.097265
vt 0.406088 0.097917
vt 0.406088 0.098568
vt 0.406088 0.099220
vt 0.406088 0.099871
vt 0.406088 0.112250
vt 0.406088 0.092053
vt 0.406088 0.092705
vt 0.406088 0.091402
vt 0.406088 0.090750
vt 0.406088 0.090099
vt 0.406088 0.112901
vt 0.406088 0.089447
vt 0.406088 0.088796
vt 0.406088 0.113553
vt 0.406088 0.088144
vt 0.406088 0.087493
vt 0.406088 0.114204
vt 0.406088 0.086841
vt 0.406088 0.114856
vt 0.406088 0.086190
vt 0.406088 0.085538
vt 0.406088 0.115507
vt 0.406088 0.084887
vt 0.406088 0.116159
vt 0.406088 0.084235
vt 0.406088 0.083584
vt 0.406088 0.116810
vt 0.406088 0.067296
vt 0.406088 0.066644
vt 0.406088 0.065993
vt 0.406088 0.067947
vt 0.406088 0.131795
vt 0.406088 0.082932
vt 0.406088 0.117462
vt 0.406088 0.082281
vt 0.406088 0.068599
vt 0.406088 0.118113
vt 0.406088 0.081629
vt 0.406088 0.080978
vt 0.406088 0.118765
vt 0.406088 0.080326
vt 0.406088 0.119416
vt 0.406088 0.079675
vt 0.406088 0.079023
vt 0.406088 0.120068
vt 0.406088 0.078372
vt 0.406088 0.069250
vt 0.406088 0.069902
vt 0.406088 0.070553
vt 0.406088 0.077720
vt 0.406088 0.071205
vt 0.406088 0.071856
vt 0.406088 0.072508
vt 0.406088 0.077069
vt 0.406088 0.120719
vt 0.406088 0.073160
vt 0.406088 0.073811
vt 0.406088 0.074463
vt 0.406088 0.076417
vt 0.406088 0.075114
vt 0.406088 0.075766
vt 0.406088 0.121371
vt 0.406088 0.131143
vt 0.406088 0.130492
vt 0.406088 0.122022
vt 0.406088 0.129840
vt 0.406088 0.129189
vt 0.406088 0.122674
vt 0.406088 0.128537
vt 0.406088 0.127886
vt 0.406088 0.127234
vt 0.406088 0.123325
vt 0.406088 0.126583
vt 0.406088 0.125931
vt 0.406088 0.125280
vt 0.406088 0.123977
vt 0.406088 0.124628
vt 0.406088 0.026384
vt 0.406088 0.000064
vt 0.406088 0.013224
vt 0.406088 0.065866
vt 0.406088 0.052705
vt 0.406088 0.039545
vt 0.406088 0.145083
vt 0.406088 0.131922
vt 0.406088 0.138502
vt 0.406088 0.184564
vt 0.406088 0.177984
vt 0.406088 0.197724
vt 0.406088 0.191144
vt 0.406088 0.158243
vt 0.406088 0.164823
vt 0.406088 0.151663
vt 0.406088 0.171403
vt 0.406088 0.223480
vt 0.406088 0.222094
vt 0.406088 0.222787
vt 0.406088 0.221402
vt 0.406088 0.224172
vt 0.406088 0.220709
vt 0.406088 0.224865
vt 0.406088 0.220016
vt 0.406088 0.225558
vt 0.406088 0.219324
vt 0.406088 0.226250
vt 0.406088 0.218631
vt 0.406088 0.226943
vt 0.406088 0.239411
vt 0.406088 0.238718
vt 0.406088 0.240103
vt 0.406088 0.240796
vt 0.406088 0.238025
vt 0.406088 0.241488
vt 0.406088 0.237333
vt 0.406088 0.217938
vt 0.406088 0.227635
vt 0.406088 0.242181
vt 0.406088 0.236640
vt 0.406088 0.242874
vt 0.406088 0.235947
vt 0.406088 0.217246
vt 0.406088 0.228328
vt 0.406088 0.243566
vt 0.406088 0.235255
vt 0.406088 0.244259
vt 0.406088 0.234562
vt 0.406088 0.216553
vt 0.406088 0.229021
vt 0.406088 0.244952
vt 0.406088 0.233869
vt 0.406088 0.215860
vt 0.406088 0.229713
vt 0.406088 0.245644
vt 0.406088 0.233177
vt 0.406088 0.246337
vt 0.406088 0.232484
vt 0.406088 0.215168
vt 0.406088 0.230406
vt 0.406088 0.247030
vt 0.406088 0.231791
vt 0.406088 0.214475
vt 0.406088 0.197851
vt 0.406088 0.247722
vt 0.406088 0.231099
vt 0.406088 0.198544
vt 0.406088 0.263653
vt 0.406088 0.248415
vt 0.406088 0.213782
vt 0.406088 0.262961
vt 0.406088 0.249108
vt 0.406088 0.213090
vt 0.406088 0.199237
vt 0.406088 0.262268
vt 0.406088 0.249800
vt 0.406088 0.212397
vt 0.406088 0.199929
vt 0.406088 0.250493
vt 0.406088 0.261575
vt 0.406088 0.211704
vt 0.406088 0.200622
vt 0.406088 0.251186
vt 0.406088 0.260883
vt 0.406088 0.251878
vt 0.406088 0.260190
vt 0.406088 0.211012
vt 0.406088 0.201315
vt 0.406088 0.252571
vt 0.406088 0.259497
vt 0.406088 0.253264
vt 0.406088 0.258805
vt 0.406088 0.210319
vt 0.406088 0.202007
vt 0.406088 0.253956
vt 0.406088 0.258112
vt 0.406088 0.254649
vt 0.406088 0.257419
vt 0.406088 0.209627
vt 0.406088 0.202700
vt 0.406088 0.255342
vt 0.406088 0.256727
vt 0.406088 0.256034
vt 0.406088 0.208934
vt 0.406088 0.203393
vt 0.406088 0.208241
vt 0.406088 0.204085
vt 0.406088 0.207549
vt 0.406088 0.204778
vt 0.406088 0.206856
vt 0.406088 0.205471
vt 0.406088 0.206163
vt 0.406088 0.108992
vt 0.406088 0.107689
vt 0.406088 0.108341
vt 0.406088 0.107038
vt 0.406088 0.106386
vt 0.406088 0.105735
vt 0.406088 0.109644
vt 0.406088 0.105083
vt 0.406088 0.104432
vt 0.406088 0.103780
vt 0.406088 0.110295
vt 0.406088 0.103129
vt 0.406088 0.102477
vt 0.406088 0.110947
vt 0.406088 0.101826
vt 0.406088 0.101174
vt 0.406088 0.111598
vt 0.406088 0.100523
vt 0.406088 0.093356
vt 0.406088 0.094008
vt 0.406088 0.094659
vt 0.406088 0.095311
vt 0.406088 0.095962
vt 0.406088 0.096614
vt 0.406088 0.097265
vt 0.406088 0.097917
vt 0.406088 0.098568
vt 0.406088 0.099220
vt 0.406088 0.099871
vt 0.406088 0.112250
vt 0.406088 0.092053
vt 0.406088 0.092705
vt 0.406088 0.091402
vt 0.406088 0.090750
vt 0.406088 0.090099
vt 0.406088 0.112901
vt 0.406088 0.089447
vt 0.406088 0.088796
vt 0.406088 0.113553
vt 0.406088 0.088144
vt 0.406088 0.087493
vt 0.406088 0.114204
vt 0.406088 0.086841
vt 0.406088 0.114856
vt 0.406088 0.086190
vt 0.406088 0.085538
vt 0.406088 0.115507
vt 0.406088 0.084887
vt 0.406088 0.116159
vt 0.406088 0.084235
vt 0.406088 0.083584
vt 0.406088 0.116810
vt 0.406088 0.067296
vt 0.406088 0.065993
vt 0.406088 0.066644
vt 0.406088 0.067947
vt 0.406088 0.131795
vt 0.406088 0.082932
vt 0.406088 0.117462
vt 0.406088 0.082281
vt 0.406088 0.068599
vt 0.406088 0.118113
vt 0.406088 0.081629
vt 0.406088 0.080978
vt 0.406088 0.118765
vt 0.406088 0.080326
vt 0.406088 0.119416
vt 0.406088 0.079675
vt 0.406088 0.079023
vt 0.406088 0.120068
vt 0.406088 0.078372
vt 0.406088 0.069250
vt 0.406088 0.069902
vt 0.406088 0.070553
vt 0.406088 0.077720
vt 0.406088 0.071205
vt 0.406088 0.071856
vt 0.406088 0.072508
vt 0.406088 0.077069
vt 0.406088 0.120719
vt 0.406088 0.073160
vt 0.406088 0.073811
vt 0.406088 0.074463
vt 0.406088 0.076417
vt 0.406088 0.075114
vt 0.406088 0.075766
vt 0.406088 0.121371
vt 0.406088 0.131143
vt 0.406088 0.130492
vt 0.406088 0.122022
vt 0.406088 0.129840
vt 0.406088 0.129189
vt 0.406088 0.122674
vt 0.406088 0.128537
vt 0.406088 0.127886
vt 0.406088 0.127234
vt 0.406088 0.123325
vt 0.406088 0.126583
vt 0.406088 0.125931
vt 0.406088 0.125280
vt 0.406088 0.123977
vt 0.406088 0.124628
vt 0.406088 0.263781
vt 0.406088 0.263781
vt 0.406088 0.263781
vt 0.406088 0.263781
vt 0.406088 0.263781
vt 0.406088 0.263781
vt 0.406088 0.263781
vt 0.406088 0.263781
vt 0.405961 0.014952
vt 0.405961 0.999936
vt 0.201523 0.507597
vt 0.212339 0.496829
vt 0.000064 0.985048
vt 0.193685 0.503171
vt 0.000064 0.000064
vt 0.204501 0.492403
vn 0.0000 -0.7639 0.6453
vn 0.0000 -0.7640 0.6453
vn 0.0000 -0.7639 0.6454
vn 0.0000 -0.7641 0.6450
vn 0.0000 -0.7649 0.6442
vn -0.0000 -0.7640 0.6452
vn -0.0000 -0.7638 0.6455
vn -0.0000 -0.7636 0.6457
vn 0.0001 -0.7642 0.6450
vn 0.0000 0.7639 -0.6453
vn 0.0000 0.7641 -0.6451
vn 0.0000 0.7629 -0.6466
vn 0.0000 0.7643 -0.6449
vn -0.0000 0.7640 -0.6453
vn -0.0000 0.7639 -0.6454
vn -0.0000 0.7636 -0.6457
vn -0.0000 0.7640 -0.6452
vn -0.0000 0.7638 -0.6454
vn 0.9328 0.2325 0.2753
vn -0.2951 -0.6166 -0.7299
vn 0.2397 0.6265 0.7417
vn -0.1039 -0.6418 -0.7598
vn 0.6347 -0.4986 -0.5903
vn 0.9988 -0.0318 -0.0376
vn 0.0764 -0.6434 -0.7617
vn 0.7427 0.4321 0.5116
vn 0.8838 -0.3019 -0.3574
vn 0.9667 0.1651 0.1954
vn -0.4552 -0.5745 -0.6802
vn -0.3404 -0.6068 -0.7183
vn 0.5148 -0.5532 -0.6549
vn -1.0000 0.0000 0.0000
vn 0.9886 -0.0972 -0.1151
vn -0.0189 -0.6452 -0.7638
vn -0.8958 -0.2868 -0.3395
vn -0.1990 -0.6324 -0.7487
vn 0.8853 0.3001 0.3553
vn 1.0000 0.0000 0.0000
vn 0.8188 -0.3704 -0.4385
vn -0.3826 -0.5962 -0.7058
vn 0.5272 0.5483 0.6492
vn 0.3785 -0.5973 -0.7071
vn -0.4210 -0.5853 -0.6929
vn -0.0597 -0.6441 -0.7626
vn -0.0000 -0.6453 -0.7639
vn -0.2476 -0.6252 -0.7402
vn -0.9505 -0.2005 -0.2374
vn -0.2376 -0.6268 -0.7421
vn 0.0000 0.6453 0.7639
vn 0.9988 -0.0313 -0.0370
vn -0.8830 0.3029 0.3586
vn 0.8952 -0.2876 -0.3404
vn -0.4852 -0.5642 -0.6680
vn 0.5420 -0.5423 -0.6420
vn -0.9469 0.2076 0.2457
vn -0.1109 0.6413 0.7592
vn -0.0789 -0.6433 -0.7616
vn 0.9507 0.2002 0.2370
vn 0.9467 -0.2079 -0.2461
vn -0.9537 -0.1942 -0.2299
vn 0.9451 -0.2110 -0.2497
vn 0.9893 -0.0942 -0.1115
vn -0.6587 -0.4855 -0.5748
vn 0.8363 -0.3538 -0.4189
vn 0.9389 -0.2221 -0.2629
vn -0.9889 0.0957 0.1133
vn -0.9396 -0.2208 -0.2614
vn 0.6617 -0.4838 -0.5728
vn 0.4015 -0.5910 -0.6997
vn -0.9989 0.0308 0.0364
vn 0.0810 -0.6432 -0.7614
vn 0.9697 -0.1577 -0.1866
vn -0.8934 0.2899 0.3432
vn 0.7593 -0.4199 -0.4971
vn -0.5313 0.5467 0.6472
vn -0.7580 -0.4209 -0.4983
vn 0.0797 0.6432 0.7615
vn 0.2449 -0.6256 -0.7407
vn -0.9702 -0.1562 -0.1850
vn -0.9989 -0.0308 -0.0365
vn -0.9895 0.0934 0.1106
vn 0.6543 0.4880 0.5777
vn -0.9384 0.2230 0.2640
vn -0.3958 -0.5926 -0.7015
vn -0.6527 0.4889 0.5788
vn -0.8362 -0.3539 -0.4190
vn -0.8324 0.3576 0.4234
vn 0.9370 0.2254 0.2668
vn -0.9896 -0.0930 -0.1101
vn -0.3909 0.5939 0.7031
vn 0.9988 0.0315 0.0373
vn -0.0780 0.6433 0.7616
vn 0.2303 -0.6280 -0.7434
vn -0.9698 0.1575 0.1864
vn 0.2409 0.6263 0.7414
vn 0.5346 0.5454 0.6456
vn -0.7529 0.4247 0.5028
vn 0.7529 0.4247 0.5028
vn 0.8919 0.2918 0.3454
vn -0.2370 0.6269 0.7422
vn 0.9688 0.1598 0.1892
vn -0.5266 -0.5486 -0.6494
vn 0.3952 0.5928 0.7018
vn 0.0786 -0.6433 -0.7616
vn -0.3913 0.5939 0.7030
vn -0.5287 0.5477 0.6484
vn -0.9356 -0.2278 -0.2696
vn 0.8314 0.3586 0.4245
vn 0.6447 -0.4933 -0.5840
vn 0.9890 0.0953 0.1128
vn -0.8262 -0.3636 -0.4304
vn -0.3891 -0.5945 -0.7037
vn 0.9355 -0.2280 -0.2700
vn 0.2364 -0.6270 -0.7423
vn -0.0791 -0.6433 -0.7615
vn 0.5250 -0.5492 -0.6502
vn -0.7457 -0.4299 -0.5090
vn 0.9988 0.0313 0.0370
vn 0.8885 -0.2961 -0.3506
vn 0.7448 -0.4306 -0.5098
vn 0.8886 0.2960 0.3504
vn 0.9988 -0.0311 -0.0368
vn 0.9684 -0.1608 -0.1904
vn -0.9891 -0.0950 -0.1125
vn -0.0797 0.6432 0.7615
vn 0.9354 0.2282 0.2702
vn 0.9890 0.0954 0.1130
vn -0.6477 0.4916 0.5820
vn 0.3875 -0.5949 -0.7042
vn 0.8255 -0.3642 -0.4311
vn 0.6464 0.4924 0.5829
vn 0.8261 0.3637 0.4305
vn 0.3897 0.5943 0.7035
vn -0.9356 0.2279 0.2698
vn 0.0793 0.6433 0.7615
vn -0.9988 0.0313 0.0370
vn 0.9891 -0.0951 -0.1125
vn -0.2393 0.6265 0.7417
vn 0.9683 0.1612 0.1908
vn 0.7459 0.4298 0.5089
vn 0.3788 0.5972 0.7070
vn -0.9685 -0.1607 -0.1902
vn 0.2969 0.6162 0.7295
vn 0.3226 0.6108 0.7231
vn 0.1990 0.6324 0.7487
vn 0.1596 0.6370 0.7541
vn 0.0244 0.6451 0.7637
vn 0.2381 0.6267 0.7420
vn 0.3635 0.6012 0.7117
vn -0.0726 0.6436 0.7619
vn -0.5032 0.5576 0.6602
vn 0.3129 -0.6129 -0.7256
vn -0.8890 0.2955 0.3499
vn -0.8888 -0.2957 -0.3501
vn 0.2678 0.6217 0.7360
vn -0.6256 0.5034 0.5960
vn -0.9988 0.0311 0.0368
vn 0.1171 0.6409 0.7587
vn -0.9329 0.2324 0.2751
vn -0.9349 -0.2290 -0.2711
vn -0.7468 0.4291 0.5080
vn -0.2207 0.6294 0.7451
vn -0.9988 -0.0319 -0.0378
vn -0.6539 -0.4882 -0.5780
vn -0.8267 0.3631 0.4298
vn -0.7303 0.4408 0.5219
vn -0.8890 -0.2955 -0.3499
vn -0.0830 -0.6431 -0.7613
vn 0.5674 -0.5314 -0.6291
vn -0.5372 -0.5443 -0.6443
vn 0.2063 -0.6314 -0.7475
vn -0.9676 0.1630 0.1930
vn 0.0305 -0.6450 -0.7636
vn 0.4089 -0.5889 -0.6971
vn -0.9890 0.0954 0.1129
vn -0.9887 -0.0969 -0.1147
vn 0.2609 -0.6230 -0.7375
vn -0.8281 -0.3617 -0.4282
vn 0.4527 -0.5754 -0.6812
vn -0.4007 -0.5912 -0.6999
vn -0.4311 0.5823 0.6893
vn -0.1507 -0.6379 -0.7552
vn 0.0907 -0.6426 -0.7608
vn -0.5373 -0.5442 -0.6443
vn -0.2717 0.6210 0.7352
vn 0.3447 0.6057 0.7171
vn -0.4007 0.5912 0.6999
vn -0.0618 0.6441 0.7625
vn 0.2351 0.6272 0.7425
vn -0.2187 0.6297 0.7454
vn 0.0719 0.6436 0.7620
vn -0.0189 0.6452 0.7638
vn -0.3665 0.6004 0.7108
vn 0.4937 -0.5612 -0.6644
vn 0.3906 0.5940 0.7033
vn -0.8159 0.3731 0.4417
vn -0.2400 -0.6264 -0.7416
vn -0.9677 -0.1626 -0.1925
vn -0.4744 0.5681 0.6725
vn 0.5266 0.5486 0.6494
vn 0.8225 0.3670 0.4345
vn -0.7504 -0.4265 -0.5050
vn -0.3639 0.6011 0.7116
vn -0.2472 -0.6253 -0.7402
vn 0.1494 -0.6380 -0.7554
vn -0.1642 0.6365 0.7536
vn 0.9883 0.0982 0.1163
vn -0.9684 0.1610 0.1906
vn 0.0801 0.6432 0.7615
vn -0.9988 -0.0311 -0.0368
vn 0.3623 -0.6014 -0.7120
vn 0.5318 -0.5465 -0.6469
vn 0.9670 -0.1644 -0.1946
vn 0.6443 0.4935 0.5843
vn 0.9987 0.0323 0.0383
vn -0.4554 0.5745 0.6801
vn -0.3206 0.6112 0.7236
vn 0.9326 -0.2329 -0.2757
vn 0.7361 -0.4368 -0.5171
vn -0.6460 -0.4926 -0.5831
vn -0.5774 0.5774 -0.5774
vn 0.5774 0.5774 -0.5774
vn 0.5774 -0.5774 -0.5774
vn -0.5774 -0.5774 -0.5774
vn 0.5774 0.5774 0.5774
vn -0.5774 0.5774 0.5774
vn -0.5774 -0.5774 0.5774
vn 0.5774 -0.5774 0.5774
vn -0.6821 -0.2183 -0.6979
vn 0.6821 -0.2183 -0.6979
vn 0.5404 -0.6583 -0.5240
vn -0.5404 -0.6583 -0.5240
vn 0.6821 -0.2183 0.6979
vn 0.5404 -0.6583 0.5240
vn -0.6821 -0.2183 0.6979
vn -0.5404 -0.6583 0.5240
usemtl Default_OBJ
s off
f 3/1/1 2/2/1 1/3/1
f 3/1/1 1/3/1 6/4/1
f 3/1/1 6/4/1 5/5/1
f 3/1/1 5/5/1 4/6/1
f 9/7/1 8/8/1 7/9/1
f 9/7/1 7/9/1 15/10/1
f 15/10/1 7/9/1 14/11/1
f 9/7/1 15/10/1 17/12/1
f 16/13/1 15/10/1 14/11/1
f 9/7/1 17/12/1 11/14/1
f 11/14/1 17/12/1 16/13/1
f 11/14/1 16/13/1 12/15/1
f 12/15/1 16/13/1 14/11/1
f 9/7/1 11/14/1 10/16/1
f 13/17/1 12/15/1 14/11/1
f 55/18/1 54/19/1 53/20/1
f 55/18/2 53/20/2 52/21/2
f 56/22/1 55/18/1 52/21/1
f 56/22/1 52/21/1 51/23/1
f 57/24/1 56/22/1 51/23/1
f 57/24/1 51/23/1 50/25/1
f 58/26/1 57/24/1 50/25/1
f 58/26/1 50/25/1 49/27/1
f 59/28/1 58/26/1 49/27/1
f 59/28/1 49/27/1 48/29/1
f 60/30/1 59/28/1 78/31/1
f 78/31/3 59/28/3 48/29/3
f 60/30/4 78/31/4 77/32/4
f 79/33/5 78/31/5 48/29/5
f 80/34/1 79/33/1 48/29/1
f 60/30/1 77/32/1 76/35/1
f 81/36/1 80/34/1 48/29/1
f 60/30/1 76/35/1 75/37/1
f 81/36/1 48/29/1 47/38/1
f 61/39/1 60/30/1 75/37/1
f 82/40/1 81/36/1 47/38/1
f 61/39/2 75/37/2 74/41/2
f 83/42/1 82/40/1 47/38/1
f 61/39/1 74/41/1 73/43/1
f 83/42/1 47/38/1 46/44/1
f 62/45/1 61/39/1 73/43/1
f 84/46/1 83/42/1 46/44/1
f 62/45/1 73/43/1 72/47/1
f 85/48/1 84/46/1 46/44/1
f 62/45/1 72/47/1 71/49/1
f 85/48/1 46/44/1 45/50/1
f 63/51/1 62/45/1 71/49/1
f 86/52/1 85/48/1 45/50/1
f 63/51/1 71/49/1 70/53/1
f 86/52/1 45/50/1 44/54/1
f 64/55/1 63/51/1 70/53/1
f 87/56/1 86/52/1 44/54/1
f 64/55/1 70/53/1 69/57/1
f 88/58/1 87/56/1 44/54/1
f 64/55/1 69/57/1 68/59/1
f 88/58/1 44/54/1 43/60/1
f 65/61/1 64/55/1 68/59/1
f 89/62/1 88/58/1 43/60/1
f 65/61/1 68/59/1 67/63/1
f 89/62/1 43/60/1 42/64/1
f 18/65/1 65/61/1 67/63/1
f 90/66/1 89/62/1 42/64/1
f 18/65/1 67/63/1 66/67/1
f 19/68/1 18/65/1 66/67/1
f 19/68/1 66/67/1 113/69/1
f 91/70/1 90/66/1 42/64/1
f 91/70/1 42/64/1 41/71/1
f 19/68/1 113/69/1 112/72/1
f 92/73/1 91/70/1 41/71/1
f 92/73/1 41/71/1 40/74/1
f 20/75/1 19/68/1 112/72/1
f 20/75/1 112/72/1 111/76/1
f 93/77/1 92/73/1 40/74/1
f 93/77/1 40/74/1 39/78/1
f 21/79/1 20/75/1 111/76/1
f 94/80/1 93/77/1 39/78/1
f 21/79/1 111/76/1 110/81/1
f 94/80/1 39/78/1 38/82/1
f 22/83/1 21/79/1 110/81/1
f 95/84/1 94/80/1 38/82/1
f 22/83/1 110/81/1 109/85/1
f 96/86/1 95/84/1 38/82/1
f 22/83/1 109/85/1 108/87/1
f 96/86/1 38/82/1 37/88/1
f 23/89/1 22/83/1 108/87/1
f 97/90/1 96/86/1 37/88/1
f 23/89/1 108/87/1 107/91/1
f 98/92/1 97/90/1 37/88/1
f 23/89/1 107/91/1 106/93/1
f 98/92/1 37/88/1 36/94/1
f 24/95/1 23/89/1 106/93/1
f 99/96/1 98/92/1 36/94/1
f 24/95/1 106/93/1 105/97/1
f 100/98/1 99/96/1 36/94/1
f 24/95/1 105/97/1 104/99/1
f 100/98/1 36/94/1 35/100/1
f 25/101/1 24/95/1 104/99/1
f 101/102/1 100/98/1 35/100/1
f 25/101/1 104/99/1 103/103/1
f 102/104/1 101/102/1 35/100/1
f 25/101/1 103/103/1 102/104/1
f 25/101/2 102/104/2 35/100/2
f 25/101/1 35/100/1 34/105/1
f 26/106/1 25/101/1 34/105/1
f 26/106/1 34/105/1 33/107/1
f 27/108/1 26/106/1 33/107/1
f 27/108/1 33/107/1 32/109/1
f 28/110/1 27/108/1 32/109/1
f 28/110/1 32/109/1 31/111/1
f 29/112/2 28/110/2 31/111/2
f 29/112/1 31/111/1 30/113/1
f 180/114/6 179/115/6 178/116/6
f 180/114/2 178/116/2 177/117/2
f 180/114/7 177/117/7 176/118/7
f 180/114/1 176/118/1 175/119/1
f 181/120/2 180/114/2 175/119/2
f 181/120/1 175/119/1 174/121/1
f 181/120/6 174/121/6 173/122/6
f 181/120/3 173/122/3 172/123/3
f 182/124/2 181/120/2 172/123/2
f 182/124/1 172/123/1 171/125/1
f 182/124/1 171/125/1 170/126/1
f 183/127/1 182/124/1 170/126/1
f 183/127/1 170/126/1 169/128/1
f 183/127/1 169/128/1 168/129/1
f 184/130/1 183/127/1 168/129/1
f 184/130/1 168/129/1 167/131/1
f 184/130/1 167/131/1 156/132/1
f 156/132/1 167/131/1 157/133/1
f 157/133/1 167/131/1 158/134/1
f 158/134/2 167/131/2 159/135/2
f 159/135/1 167/131/1 160/136/1
f 160/136/1 167/131/1 161/137/1
f 161/137/1 167/131/1 162/138/1
f 162/138/1 167/131/1 163/139/1
f 163/139/1 167/131/1 164/140/1
f 164/140/1 167/131/1 165/141/1
f 165/141/1 167/131/1 166/142/1
f 185/143/1 184/130/1 154/144/1
f 154/144/8 184/130/8 155/145/8
f 155/145/9 184/130/9 156/132/9
f 185/143/7 154/144/7 153/146/7
f 185/143/6 153/146/6 152/147/6
f 185/143/1 152/147/1 151/148/1
f 186/149/1 185/143/1 151/148/1
f 186/149/1 151/148/1 150/150/1
f 186/149/1 150/150/1 149/151/1
f 187/152/1 186/149/1 149/151/1
f 187/152/1 149/151/1 148/153/1
f 187/152/1 148/153/1 147/154/1
f 188/155/1 187/152/1 147/154/1
f 188/155/1 147/154/1 146/156/1
f 189/157/1 188/155/1 146/156/1
f 189/157/1 146/156/1 145/158/1
f 189/157/1 145/158/1 144/159/1
f 190/160/1 189/157/1 144/159/1
f 190/160/1 144/159/1 143/161/1
f 191/162/1 190/160/1 143/161/1
f 191/162/1 143/161/1 142/163/1
f 191/162/1 142/163/1 141/164/1
f 192/165/1 191/162/1 141/164/1
f 116/166/1 115/167/1 114/168/1
f 116/166/1 114/168/1 117/169/1
f 117/169/1 114/168/1 215/170/1
f 192/165/1 141/164/1 140/171/1
f 193/172/1 192/165/1 140/171/1
f 193/172/1 140/171/1 139/173/1
f 118/174/1 117/169/1 215/170/1
f 194/175/1 193/172/1 139/173/1
f 194/175/1 139/173/1 138/176/1
f 194/175/1 138/176/1 137/177/1
f 195/178/1 194/175/1 137/177/1
f 195/178/1 137/177/1 136/179/1
f 196/180/1 195/178/1 136/179/1
f 196/180/1 136/179/1 135/181/1
f 196/180/1 135/181/1 134/182/1
f 197/183/1 196/180/1 134/182/1
f 197/183/1 134/182/1 133/184/1
f 119/185/1 118/174/1 215/170/1
f 120/186/1 119/185/1 215/170/1
f 121/187/1 120/186/1 215/170/1
f 197/183/1 133/184/1 132/188/1
f 122/189/1 121/187/1 215/170/1
f 123/190/1 122/189/1 215/170/1
f 124/191/1 123/190/1 215/170/1
f 197/183/1 132/188/1 131/192/1
f 198/193/1 197/183/1 131/192/1
f 125/194/6 124/191/6 215/170/6
f 126/195/1 125/194/1 215/170/1
f 127/196/1 126/195/1 215/170/1
f 198/193/2 131/192/2 130/197/2
f 128/198/1 127/196/1 215/170/1
f 129/199/3 128/198/3 215/170/3
f 130/197/6 129/199/6 215/170/6
f 198/193/1 130/197/1 215/170/1
f 199/200/1 198/193/1 215/170/1
f 199/200/1 215/170/1 214/201/1
f 199/200/1 214/201/1 213/202/1
f 200/203/1 199/200/1 213/202/1
f 200/203/1 213/202/1 212/204/1
f 200/203/1 212/204/1 211/205/1
f 201/206/1 200/203/1 211/205/1
f 201/206/2 211/205/2 210/207/2
f 201/206/1 210/207/1 209/208/1
f 201/206/1 209/208/1 208/209/1
f 202/210/2 201/206/2 208/209/2
f 202/210/2 208/209/2 207/211/2
f 202/210/1 207/211/1 206/212/1
f 202/210/2 206/212/2 205/213/2
f 203/214/6 202/210/6 205/213/6
f 203/214/6 205/213/6 204/215/6
f 218/216/10 216/217/10 217/218/10
f 218/216/10 221/219/10 216/217/10
f 218/216/10 220/220/10 221/219/10
f 218/216/10 219/221/10 220/220/10
f 224/222/10 222/223/10 223/224/10
f 224/222/10 230/225/10 222/223/10
f 230/225/10 229/226/10 222/223/10
f 224/222/10 232/227/10 230/225/10
f 231/228/10 229/226/10 230/225/10
f 224/222/10 226/229/10 232/227/10
f 226/229/10 231/228/10 232/227/10
f 226/229/10 227/230/10 231/228/10
f 227/230/10 229/226/10 231/228/10
f 224/222/10 225/231/10 226/229/10
f 228/232/10 229/226/10 227/230/10
f 270/233/10 268/234/10 269/235/10
f 270/233/10 267/236/10 268/234/10
f 271/237/10 267/236/10 270/233/10
f 271/237/10 266/238/10 267/236/10
f 272/239/10 266/238/10 271/237/10
f 272/239/10 265/240/10 266/238/10
f 273/241/10 265/240/10 272/239/10
f 273/241/10 264/242/10 265/240/10
f 274/243/10 264/242/10 273/241/10
f 274/243/10 263/244/10 264/242/10
f 275/245/10 293/246/10 274/243/10
f 293/246/11 263/244/11 274/243/11
f 275/245/12 292/247/12 293/246/12
f 294/248/13 263/244/13 293/246/13
f 295/249/10 263/244/10 294/248/10
f 275/245/14 291/250/14 292/247/14
f 296/251/14 263/244/14 295/249/14
f 275/245/10 290/252/10 291/250/10
f 296/251/10 262/253/10 263/244/10
f 276/254/10 290/252/10 275/245/10
f 297/255/10 262/253/10 296/251/10
f 276/254/10 289/256/10 290/252/10
f 298/257/10 262/253/10 297/255/10
f 276/254/10 288/258/10 289/256/10
f 298/257/10 261/259/10 262/253/10
f 277/260/10 288/258/10 276/254/10
f 299/261/10 261/259/10 298/257/10
f 277/260/10 287/262/10 288/258/10
f 300/263/10 261/259/10 299/261/10
f 277/260/10 286/264/10 287/262/10
f 300/263/10 260/265/10 261/259/10
f 278/266/10 286/264/10 277/260/10
f 301/267/10 260/265/10 300/263/10
f 278/266/10 285/268/10 286/264/10
f 301/267/10 259/269/10 260/265/10
f 279/270/10 285/268/10 278/266/10
f 302/271/10 259/269/10 301/267/10
f 279/270/10 284/272/10 285/268/10
f 303/273/10 259/269/10 302/271/10
f 279/270/10 283/274/10 284/272/10
f 303/273/10 258/275/10 259/269/10
f 280/276/10 283/274/10 279/270/10
f 304/277/10 258/275/10 303/273/10
f 280/276/10 282/278/10 283/274/10
f 304/277/10 257/279/10 258/275/10
f 233/280/10 282/278/10 280/276/10
f 305/281/10 257/279/10 304/277/10
f 233/280/10 281/282/10 282/278/10
f 234/283/10 281/282/10 233/280/10
f 234/283/10 328/284/10 281/282/10
f 306/285/10 257/279/10 305/281/10
f 306/285/10 256/286/10 257/279/10
f 234/283/10 327/287/10 328/284/10
f 307/288/10 256/286/10 306/285/10
f 307/288/10 255/289/10 256/286/10
f 235/290/10 327/287/10 234/283/10
f 235/290/10 326/291/10 327/287/10
f 308/292/10 255/289/10 307/288/10
f 308/292/10 254/293/10 255/289/10
f 236/294/10 326/291/10 235/290/10
f 309/295/10 254/293/10 308/292/10
f 236/294/10 325/296/10 326/291/10
f 309/295/10 253/297/10 254/293/10
f 237/298/10 325/296/10 236/294/10
f 310/299/10 253/297/10 309/295/10
f 237/298/10 324/300/10 325/296/10
f 311/301/10 253/297/10 310/299/10
f 237/298/10 323/302/10 324/300/10
f 311/301/10 252/303/10 253/297/10
f 238/304/10 323/302/10 237/298/10
f 312/305/10 252/303/10 311/301/10
f 238/304/10 322/306/10 323/302/10
f 313/307/10 252/303/10 312/305/10
f 238/304/10 321/308/10 322/306/10
f 313/307/10 251/309/10 252/303/10
f 239/310/10 321/308/10 238/304/10
f 314/311/10 251/309/10 313/307/10
f 239/310/10 320/312/10 321/308/10
f 315/313/10 251/309/10 314/311/10
f 239/310/14 319/314/14 320/312/14
f 315/313/10 250/315/10 251/309/10
f 240/316/10 319/314/10 239/310/10
f 316/317/10 250/315/10 315/313/10
f 240/316/10 318/318/10 319/314/10
f 317/319/14 250/315/14 316/317/14
f 240/316/10 317/319/10 318/318/10
f 240/316/10 250/315/10 317/319/10
f 240/316/10 249/320/10 250/315/10
f 241/321/10 249/320/10 240/316/10
f 241/321/10 248/322/10 249/320/10
f 242/323/10 248/322/10 241/321/10
f 242/323/10 247/324/10 248/322/10
f 243/325/10 247/324/10 242/323/10
f 243/325/10 246/326/10 247/324/10
f 244/327/14 246/326/14 243/325/14
f 244/327/15 245/328/15 246/326/15
f 395/329/16 393/330/16 394/331/16
f 395/329/14 392/332/14 393/330/14
f 395/329/17 391/333/17 392/332/17
f 395/329/18 390/334/18 391/333/18
f 396/335/14 390/334/14 395/329/14
f 396/335/10 389/336/10 390/334/10
f 396/335/17 388/337/17 389/336/17
f 396/335/10 387/338/10 388/337/10
f 397/339/10 387/338/10 396/335/10
f 397/339/14 386/340/14 387/338/14
f 397/339/10 385/341/10 386/340/10
f 398/342/10 385/341/10 397/339/10
f 398/342/10 384/343/10 385/341/10
f 398/342/14 383/344/14 384/343/14
f 399/345/10 383/344/10 398/342/10
f 399/345/10 382/346/10 383/344/10
f 399/345/10 371/347/10 382/346/10
f 371/347/10 372/348/10 382/346/10
f 372/348/14 373/349/14 382/346/14
f 373/349/10 374/350/10 382/346/10
f 374/350/10 375/351/10 382/346/10
f 375/351/10 376/352/10 382/346/10
f 376/352/10 377/353/10 382/346/10
f 377/353/10 378/354/10 382/346/10
f 378/354/10 379/355/10 382/346/10
f 379/355/10 380/356/10 382/346/10
f 380/356/10 381/357/10 382/346/10
f 400/358/10 369/359/10 399/345/10
f 369/359/18 370/360/18 399/345/18
f 370/360/17 371/347/17 399/345/17
f 400/358/11 368/361/11 369/359/11
f 400/358/10 367/362/10 368/361/10
f 400/358/10 366/363/10 367/362/10
f 401/364/10 366/363/10 400/358/10
f 401/364/14 365/365/14 366/363/14
f 401/364/10 364/366/10 365/365/10
f 402/367/10 364/366/10 401/364/10
f 402/367/10 363/368/10 364/366/10
f 402/367/10 362/369/10 363/368/10
f 403/370/10 362/369/10 402/367/10
f 403/370/10 361/371/10 362/369/10
f 404/372/10 361/371/10 403/370/10
f 404/372/10 360/373/10 361/371/10
f 404/372/10 359/374/10 360/373/10
f 405/375/10 359/374/10 404/372/10
f 405/375/10 358/376/10 359/374/10
f 406/377/10 358/376/10 405/375/10
f 406/377/10 357/378/10 358/376/10
f 406/377/10 356/379/10 357/378/10
f 407/380/10 356/379/10 406/377/10
f 331/381/10 329/382/10 330/383/10
f 331/381/10 332/384/10 329/382/10
f 332/384/10 430/385/10 329/382/10
f 407/380/10 355/386/10 356/379/10
f 408/387/10 355/386/10 407/380/10
f 408/387/10 354/388/10 355/386/10
f 333/389/10 430/385/10 332/384/10
f 409/390/10 354/388/10 408/387/10
f 409/390/10 353/391/10 354/388/10
f 409/390/10 352/392/10 353/391/10
f 410/393/10 352/392/10 409/390/10
f 410/393/10 351/394/10 352/392/10
f 411/395/10 351/394/10 410/393/10
f 411/395/10 350/396/10 351/394/10
f 411/395/10 349/397/10 350/396/10
f 412/398/10 349/397/10 411/395/10
f 412/398/10 348/399/10 349/397/10
f 334/400/10 430/385/10 333/389/10
f 335/401/14 430/385/14 334/400/14
f 336/402/10 430/385/10 335/401/10
f 412/398/10 347/403/10 348/399/10
f 337/404/10 430/385/10 336/402/10
f 338/405/10 430/385/10 337/404/10
f 339/406/10 430/385/10 338/405/10
f 412/398/14 346/407/14 347/403/14
f 413/408/10 346/407/10 412/398/10
f 340/409/10 430/385/10 339/406/10
f 341/410/10 430/385/10 340/409/10
f 342/411/10 430/385/10 341/410/10
f 413/408/14 345/412/14 346/407/14
f 343/413/17 430/385/17 342/411/17
f 344/414/15 430/385/15 343/413/15
f 345/412/15 430/385/15 344/414/15
f 413/408/10 430/385/10 345/412/10
f 414/415/10 430/385/10 413/408/10
f 414/415/10 429/416/10 430/385/10
f 414/415/10 428/417/10 429/416/10
f 415/418/10 428/417/10 414/415/10
f 415/418/10 427/419/10 428/417/10
f 415/418/14 426/420/14 427/419/14
f 416/421/10 426/420/10 415/418/10
f 416/421/10 425/422/10 426/420/10
f 416/421/10 424/423/10 425/422/10
f 416/421/10 423/424/10 424/423/10
f 417/425/14 423/424/14 416/421/14
f 417/425/15 422/426/15 423/424/15
f 417/425/15 421/427/15 422/426/15
f 417/425/17 420/428/17 421/427/17
f 418/429/14 420/428/14 417/425/14
f 418/429/16 419/430/16 420/428/16
f 187/152/19 188/155/19 403/370/19 402/367/19
f 209/208/20 210/207/20 425/422/20 424/423/20
f 180/114/21 181/120/21 396/335/21 395/329/21
f 205/213/22 206/212/22 421/427/22 420/428/22
f 198/193/23 199/200/23 414/415/23 413/408/23
f 191/162/24 192/165/24 407/380/24 406/377/24
f 202/210/25 203/214/25 418/429/25 417/425/25
f 184/130/26 185/143/26 400/358/26 399/345/26
f 195/178/27 196/180/27 411/395/27 410/393/27
f 188/155/28 189/157/28 404/372/28 403/370/28
f 213/202/29 214/201/29 429/416/29 428/417/29
f 210/207/30 211/205/30 426/420/30 425/422/30
f 199/200/31 200/203/31 415/418/31 414/415/31
f 215/170/32 114/168/32 329/382/32 430/385/32
f 192/165/33 193/172/33 408/387/33 407/380/33
f 203/214/34 204/215/34 419/430/34 418/429/34
f 37/88/35 38/82/35 253/297/35 252/303/35
f 207/211/36 208/209/36 423/424/36 422/426/36
f 186/149/37 187/152/37 402/367/37 401/364/37
f 2/2/38 3/1/38 218/216/38 217/218/38
f 196/180/39 197/183/39 412/398/39 411/395/39
f 211/205/40 212/204/40 427/419/40 426/420/40
f 98/92/41 99/96/41 314/311/41 313/307/41
f 200/203/42 201/206/42 416/421/42 415/418/42
f 212/204/43 213/202/43 428/417/43 427/419/43
f 204/215/44 205/213/44 420/428/44 419/430/44
f 3/1/45 4/6/45 219/221/45 218/216/45
f 208/209/46 209/208/46 424/423/46 423/424/46
f 10/16/47 11/14/47 226/229/47 225/231/47
f 76/35/48 77/32/48 292/247/48 291/250/48
f 1/3/49 2/2/49 217/218/49 216/217/49
f 7/9/49 8/8/49 223/224/49 222/223/49
f 18/65/50 19/68/50 234/283/50 233/280/50
f 6/4/32 1/3/32 216/217/32 221/219/32
f 137/177/51 138/176/51 353/391/51 352/392/51
f 22/83/52 23/89/52 238/304/52 237/298/52
f 9/7/45 10/16/45 225/231/45 224/222/45
f 214/201/53 215/170/53 430/385/53 429/416/53
f 11/14/45 12/15/45 227/230/45 226/229/45
f 26/106/54 27/108/54 242/323/54 241/321/54
f 14/11/55 7/9/55 222/223/55 229/226/55
f 176/118/56 177/117/56 392/332/56 391/333/56
f 4/6/32 5/5/32 220/220/32 219/221/32
f 30/113/57 31/111/57 246/326/57 245/328/57
f 13/17/45 14/11/45 229/226/45 228/232/45
f 8/8/58 9/7/58 224/222/58 223/224/58
f 15/10/59 16/13/59 231/228/59 230/225/59
f 17/12/60 15/10/60 230/225/60 232/227/60
f 12/15/61 13/17/61 228/232/61 227/230/61
f 19/68/62 20/75/62 235/290/62 234/283/62
f 34/105/63 35/100/63 250/315/63 249/320/63
f 23/89/64 24/95/64 239/310/64 238/304/64
f 21/79/65 22/83/65 237/298/65 236/294/65
f 140/171/66 141/164/66 356/379/66 355/386/66
f 38/82/67 39/78/67 254/293/67 253/297/67
f 25/101/68 26/106/68 241/321/68 240/316/68
f 16/13/49 17/12/49 232/227/49 231/228/49
f 27/108/69 28/110/69 243/325/69 242/323/69
f 42/64/70 43/60/70 258/275/70 257/279/70
f 29/112/71 30/113/71 245/328/71 244/327/71
f 20/75/72 21/79/72 236/294/72 235/290/72
f 46/44/73 47/38/73 262/253/73 261/259/73
f 24/95/74 25/101/74 240/316/74 239/310/74
f 50/25/75 51/23/75 266/238/75 265/240/75
f 35/100/76 36/94/76 251/309/76 250/315/76
f 54/19/77 55/18/77 270/233/77 269/235/77
f 28/110/78 29/112/78 244/327/78 243/325/78
f 39/78/79 40/74/79 255/289/79 254/293/79
f 41/71/80 42/64/80 257/279/80 256/286/80
f 43/60/81 44/54/81 259/269/81 258/275/81
f 58/26/82 59/28/82 274/243/82 273/241/82
f 45/50/83 46/44/83 261/259/83 260/265/83
f 32/109/84 33/107/84 248/322/84 247/324/84
f 49/27/85 50/25/85 265/240/85 264/242/85
f 36/94/86 37/88/86 252/303/86 251/309/86
f 47/38/87 48/29/87 263/244/87 262/253/87
f 62/45/88 63/51/88 278/266/88 277/260/88
f 40/74/89 41/71/89 256/286/89 255/289/89
f 51/23/90 52/21/90 267/236/90 266/238/90
f 65/61/91 18/65/91 233/280/91 280/276/91
f 53/20/92 54/19/92 269/235/92 268/234/92
f 201/206/93 202/210/93 417/425/93 416/421/93
f 44/54/94 45/50/94 260/265/94 259/269/94
f 55/18/95 56/22/95 271/237/95 270/233/95
f 57/24/96 58/26/96 273/241/96 272/239/96
f 5/5/49 6/4/49 221/219/49 220/220/49
f 48/29/97 49/27/97 264/242/97 263/244/97
f 59/28/98 60/30/98 275/245/98 274/243/98
f 61/39/99 62/45/99 277/260/99 276/254/99
f 52/21/100 53/20/100 268/234/100 267/236/100
f 63/51/101 64/55/101 279/270/101 278/266/101
f 74/41/102 75/37/102 290/252/102 289/256/102
f 56/22/103 57/24/103 272/239/103 271/237/103
f 78/31/104 79/33/104 294/248/104 293/246/104
f 104/99/105 105/97/105 320/312/105 319/314/105
f 105/97/106 106/93/106 321/308/106 320/312/106
f 69/57/107 70/53/107 285/268/107 284/272/107
f 60/30/108 61/39/108 276/254/108 275/245/108
f 82/40/109 83/42/109 298/257/109 297/255/109
f 64/55/110 65/61/110 280/276/110 279/270/110
f 71/49/111 72/47/111 287/262/111 286/264/111
f 75/37/112 76/35/112 291/250/112 290/252/112
f 86/52/113 87/56/113 302/271/113 301/267/113
f 79/33/114 80/34/114 295/249/114 294/248/114
f 77/32/115 78/31/115 293/246/115 292/247/115
f 166/142/32 167/131/32 382/346/32 381/357/32
f 81/36/116 82/40/116 297/255/116 296/251/116
f 72/47/117 73/43/117 288/258/117 287/262/117
f 90/66/118 91/70/118 306/285/118 305/281/118
f 85/48/119 86/52/119 301/267/119 300/263/119
f 83/42/120 84/46/120 299/261/120 298/257/120
f 94/80/121 95/84/121 310/299/121 309/295/121
f 89/62/122 90/66/122 305/281/122 304/277/122
f 87/56/123 88/58/123 303/273/123 302/271/123
f 67/63/124 68/59/124 283/274/124 282/278/124
f 102/104/125 103/103/125 318/318/125 317/319/125
f 93/77/126 94/80/126 309/295/126 308/292/126
f 91/70/127 92/73/127 307/288/127 306/285/127
f 106/93/128 107/91/128 322/306/128 321/308/128
f 80/34/129 81/36/129 296/251/129 295/249/129
f 84/46/130 85/48/130 300/263/130 299/261/130
f 97/90/131 98/92/131 313/307/131 312/305/131
f 95/84/132 96/86/132 311/301/132 310/299/132
f 99/96/133 100/98/133 315/313/133 314/311/133
f 110/81/134 111/76/134 326/291/134 325/296/134
f 101/102/135 102/104/135 317/319/135 316/317/135
f 113/69/136 66/67/136 281/282/136 328/284/136
f 88/58/137 89/62/137 304/277/137 303/273/137
f 114/168/49 115/167/49 330/383/49 329/382/49
f 103/103/138 104/99/138 319/314/138 318/318/138
f 92/73/139 93/77/139 308/292/139 307/288/139
f 96/86/140 97/90/140 312/305/140 311/301/140
f 118/174/141 119/185/141 334/400/141 333/389/141
f 117/169/38 118/174/38 333/389/38 332/384/38
f 68/59/142 69/57/142 284/272/142 283/274/142
f 122/189/143 123/190/143 338/405/143 337/404/143
f 121/187/144 122/189/144 337/404/144 336/402/144
f 125/194/145 126/195/145 341/410/145 340/409/145
f 115/167/38 116/166/38 331/381/38 330/383/38
f 126/195/146 127/196/146 342/411/146 341/410/146
f 129/199/147 130/197/147 345/412/147 344/414/147
f 100/98/148 101/102/148 316/317/148 315/313/148
f 119/185/149 120/186/149 335/401/149 334/400/149
f 130/197/150 131/192/150 346/407/150 345/412/150
f 133/184/151 134/182/151 349/397/151 348/399/151
f 159/135/152 160/136/152 375/351/152 374/350/152
f 109/85/153 110/81/153 325/296/153 324/300/153
f 70/53/154 71/49/154 286/264/154 285/268/154
f 123/190/155 124/191/155 339/406/155 338/405/155
f 134/182/156 135/181/156 350/396/156 349/397/156
f 141/164/157 142/163/157 357/378/157 356/379/157
f 127/196/158 128/198/158 343/413/158 342/411/158
f 138/176/159 139/173/159 354/388/159 353/391/159
f 145/158/160 146/156/160 361/371/160 360/373/160
f 107/91/161 108/87/161 323/302/161 322/306/161
f 131/192/162 132/188/162 347/403/162 346/407/162
f 142/163/163 143/161/163 358/376/163 357/378/163
f 149/151/164 150/150/164 365/365/164 364/366/164
f 108/87/165 109/85/165 324/300/165 323/302/165
f 135/181/166 136/179/166 351/394/166 350/396/166
f 146/156/167 147/154/167 362/369/167 361/371/167
f 153/146/168 154/144/168 369/359/168 368/361/168
f 165/141/169 166/142/169 381/357/169 380/356/169
f 150/150/170 151/148/170 366/363/170 365/365/170
f 157/133/171 158/134/171 373/349/171 372/348/171
f 139/173/172 140/171/172 355/386/172 354/388/172
f 154/144/173 155/145/173 370/360/173 369/359/173
f 161/137/174 162/138/174 377/353/174 376/352/174
f 112/72/175 113/69/175 328/284/175 327/287/175
f 143/161/176 144/159/176 359/374/176 358/376/176
f 158/134/177 159/135/177 374/350/177 373/349/177
f 147/154/178 148/153/178 363/368/178 362/369/178
f 162/138/179 163/139/179 378/354/179 377/353/179
f 116/166/45 117/169/45 332/384/45 331/381/45
f 151/148/180 152/147/180 367/362/180 366/363/180
f 169/128/181 170/126/181 385/341/181 384/343/181
f 206/212/182 207/211/182 422/426/182 421/427/182
f 155/145/183 156/132/183 371/347/183 370/360/183
f 33/107/184 34/105/184 249/320/184 248/322/184
f 173/122/185 174/121/185 389/336/185 388/337/185
f 120/186/186 121/187/186 336/402/186 335/401/186
f 170/126/187 171/125/187 386/340/187 385/341/187
f 177/117/188 178/116/188 393/330/188 392/332/188
f 124/191/189 125/194/189 340/409/189 339/406/189
f 174/121/190 175/119/190 390/334/190 389/336/190
f 128/198/191 129/199/191 344/414/191 343/413/191
f 178/116/192 179/115/192 394/331/192 393/330/192
f 132/188/193 133/184/193 348/399/193 347/403/193
f 163/139/194 164/140/194 379/355/194 378/354/194
f 181/120/195 182/124/195 397/339/195 396/335/195
f 136/179/196 137/177/196 352/392/196 351/394/196
f 31/111/197 32/109/197 247/324/197 246/326/197
f 144/159/198 145/158/198 360/373/198 359/374/198
f 167/131/199 168/129/199 383/344/199 382/346/199
f 182/124/200 183/127/200 398/342/200 397/339/200
f 185/143/201 186/149/201 401/364/201 400/358/201
f 148/153/202 149/151/202 364/366/202 363/368/202
f 171/125/203 172/123/203 387/338/203 386/340/203
f 152/147/204 153/146/204 368/361/204 367/362/204
f 156/132/205 157/133/205 372/348/205 371/347/205
f 175/119/206 176/118/206 391/333/206 390/334/206
f 189/157/207 190/160/207 405/375/207 404/372/207
f 111/76/208 112/72/208 327/287/208 326/291/208
f 179/115/209 180/114/209 395/329/209 394/331/209
f 66/67/210 67/63/210 282/278/210 281/282/210
f 160/136/211 161/137/211 376/352/211 375/351/211
f 164/140/212 165/141/212 380/356/212 379/355/212
f 193/172/213 194/175/213 409/390/213 408/387/213
f 183/127/214 184/130/214 399/345/214 398/342/214
f 190/160/215 191/162/215 406/377/215 405/375/215
f 168/129/216 169/128/216 384/343/216 383/344/216
f 172/123/217 173/122/217 388/337/217 387/338/217
f 194/175/218 195/178/218 410/393/218 409/390/218
f 197/183/219 198/193/219 413/408/219 412/398/219
f 73/43/220 74/41/220 289/256/220 288/258/220
s 1
f 431/431/221 432/432/222 433/433/223 434/434/224
f 435/435/225 436/436/226 437/437/227 438/438/228
f 436/436/226 431/431/221 434/434/224 437/437/227
f 432/432/222 435/435/225 438/438/228 433/433/223
f 434/434/224 433/433/223 438/438/228 437/437/227
f 436/436/226 435/435/225 432/432/222 431/431/221
f 439/439/229 440/440/230 441/441/231 442/442/232
f 440/440/230 443/443/233 444/444/234 441/441/231
f 443/443/233 445/445/235 446/446/236 444/444/234
f 445/445/235 439/439/229 442/442/232 446/446/236
f 442/442/232 441/441/231 444/444/234 446/446/236
